<?xml version="1.0" encoding="UTF-8" standalone="no"?>
<!-- Created with Inkscape (http://www.inkscape.org/) -->

<svg
   width="200"
   height="100"
   viewBox="0 0 200 100"
   version="1.1"
   id="svg1"
   xml:space="preserve"
   inkscape:version="1.3 (0e150ed6c4, 2023-07-21)"
   sodipodi:docname="audio-phile.svg"
   xmlns:inkscape="http://www.inkscape.org/namespaces/inkscape"
   xmlns:sodipodi="http://sodipodi.sourceforge.net/DTD/sodipodi-0.dtd"
   xmlns="http://www.w3.org/2000/svg"
   xmlns:svg="http://www.w3.org/2000/svg"><sodipodi:namedview
     id="namedview1"
     pagecolor="#ffffff"
     bordercolor="#000000"
     borderopacity="0.25"
     inkscape:showpageshadow="2"
     inkscape:pageopacity="0.0"
     inkscape:pagecheckerboard="0"
     inkscape:deskcolor="#d1d1d1"
     inkscape:document-units="px"
     inkscape:zoom="2.5666667"
     inkscape:cx="193.83117"
     inkscape:cy="63.311689"
     inkscape:window-width="1920"
     inkscape:window-height="991"
     inkscape:window-x="-9"
     inkscape:window-y="-9"
     inkscape:window-maximized="1"
     inkscape:current-layer="layer1" /><defs
     id="defs1" /><g
     inkscape:label="Capa 1"
     inkscape:groupmode="layer"
     id="layer1"><path
       style="fill:#b3b3b3"
       d="M 64.383583,67.475842 V 52.951685 l 3.75,0.06508 c 2.0625,0.0358 5.37806,-0.220628 7.36791,-0.569828 8.9376,-1.568462 15.33547,7.580691 11.27893,16.129217 -2.0995,4.424359 -7.09124,6.891359 -12.05849,5.959497 -3.33752,-0.626121 -3.33835,-0.625268 -3.33835,3.419036 0,3.956548 -0.0768,4.045313 -3.5,4.045313 h -3.5 z m 15.57124,-1.903671 c 1.31228,-5.228515 -2.25275,-8.883356 -6.46574,-6.628632 C 68.569433,61.576453 70.279243,68 75.899713,68 c 2.81418,0 3.55746,-0.445006 4.05511,-2.427829 z m 67.742577,7.53586 C 137.85964,66.929637 142.13976,52 153.74879,52 c 6.16495,0 11.63479,4.514917 11.63479,9.603592 V 65 h -8.08333 c -5.76089,0 -7.97046,0.338614 -7.69048,1.178557 0.83193,2.495807 3.58461,3.291634 7.05048,2.038362 7.16697,-2.591613 10.00229,-0.706518 5.41673,3.601388 -3.39881,3.193016 -10.35548,3.81697 -14.37958,1.289724 z M 157.38358,59.5 c 0,-1.047619 -1.05555,-1.5 -3.5,-1.5 -2.44444,0 -3.5,0.452381 -3.5,1.5 0,1.047619 1.05556,1.5 3.5,1.5 2.44445,0 3.5,-0.452381 3.5,-1.5 z M 92.325153,71.75 c -0.0321,-1.2375 -0.007,-7.119718 0.0554,-13.071594 0.0842,-8.003613 -0.32988,-11.983337 -1.59,-15.282912 C 87.391403,34.494956 91.859223,27.5 100.94332,27.5 h 5.34973 l 0.29528,-4 c 0.2841,-3.848518 0.42783,-4 3.79528,-4 h 3.5 l 0.27751,14.885358 0.27751,14.885359 -4.03104,-0.540675 c -4.72301,-0.633489 -11.023977,1.034698 -11.023977,2.918608 0,0.970086 1.113237,1.160503 4.261697,0.728959 7.31345,-1.002421 9.16013,1.411604 9.5878,12.533405 L 113.58261,74 h -3.5995 -3.5995 V 67.581787 C 106.38361,60.016255 105.77191,58 103.47662,58 c -3.09773,0 -4.093007,2.237115 -4.093007,9.2 V 74 h -3.5 c -2.94565,0 -3.50925,-0.356368 -3.55843,-2.25 z M 106.54687,40.540964 C 108.75846,35.687045 102.26618,30.517403 98.583583,34.2 c -1.54692,1.546918 -1.54692,6.053081 0,7.6 2.170467,2.170466 6.729097,1.449724 7.963287,-1.259036 z M 118.38358,63.5 V 53 h 3.5 3.5 V 63.5 74 h -3.5 -3.5 z m 12.15668,-9.598478 0.0475,-20.098478 2.72993,-3.055319 c 4.47366,-5.006892 12.78422,-5.229404 17.5439,-0.469731 7.47268,7.472686 3.51784,17.857744 -7.3496,19.299361 l -5.1284,0.680306 V 62.12883 74 h -3.9454 -3.94541 z m 15.89317,-12.994663 c 2.4734,-4.621585 -1.53854,-9.321239 -5.94435,-6.96332 -2.56349,1.371935 -3.49743,4.455622 -2.12571,7.018688 1.49876,2.800473 6.56024,2.765746 8.07006,-0.05537 z M 41.397493,48.290571 c -12.77242,-6.560345 -6.2465,-21.543638 9.12977,-20.961627 l 8.35632,0.316297 0.28426,10.719737 0.28426,10.719737 -4.28426,-0.09836 c -2.35634,-0.0541 -5.63426,0.170098 -7.28426,0.498214 -1.93862,0.385511 -4.23335,-0.03692 -6.48609,-1.193998 z M 51.183583,41.8 c 2.22098,-2.220982 1.44604,-6.730774 -1.37766,-8.017338 -4.48797,-2.044856 -8.68453,2.151709 -6.63968,6.639678 1.28657,2.823701 5.79636,3.598641 8.01734,1.37766 z m 19.03838,7.111802 c -4.01489,-1.537928 -5.98438,-6.662311 -5.63412,-14.659334 L 64.883583,27.5 h 3 c 2.8513,0 3.01258,0.223053 3.25374,4.5 0.51671,9.163577 1.13985,11 3.73256,11 3.18316,0 3.85417,-1.342761 3.64362,-7.291355 -0.2889,-8.16253 2.00893,-10.806067 6.77177,-7.790565 8.98929,5.691396 -4.8088,24.921775 -15.06331,20.993722 z m 48.525697,-4.551374 c 0.34976,-2.551764 0.63592,-7.530275 0.63592,-11.063358 v -6.423787 l 3.25,0.313358 3.25,0.313359 0.28383,10.75 0.28383,10.75 h -4.16975 -4.16976 z m 38.63592,-14.277095 c 0,-2.03849 1.68847,-3.087156 3.75,-2.329037 2.41594,0.888448 1.42751,4.245704 -1.25,4.245704 -1.7971,0 -2.5,-0.538889 -2.5,-1.916667 z M 119.38358,21 c 0,-2.761905 0.27778,-3 3.5,-3 3.22222,0 3.5,0.238095 3.5,3 0,2.761904 -0.27778,3 -3.5,3 -3.22222,0 -3.5,-0.238096 -3.5,-3 z"
       id="path1" /></g></svg>
