<?xml version="1.0" encoding="UTF-8" standalone="no"?>
<!-- Created with Inkscape (http://www.inkscape.org/) -->

<svg
   width="400"
   height="100"
   viewBox="0 0 400 100"
   version="1.1"
   id="svg1"
   xml:space="preserve"
   inkscape:version="1.3 (0e150ed6c4, 2023-07-21)"
   sodipodi:docname="databiz.svg"
   xmlns:inkscape="http://www.inkscape.org/namespaces/inkscape"
   xmlns:sodipodi="http://sodipodi.sourceforge.net/DTD/sodipodi-0.dtd"
   xmlns="http://www.w3.org/2000/svg"
   xmlns:svg="http://www.w3.org/2000/svg"><sodipodi:namedview
     id="namedview1"
     pagecolor="#ffffff"
     bordercolor="#000000"
     borderopacity="0.25"
     inkscape:showpageshadow="2"
     inkscape:pageopacity="0.0"
     inkscape:pagecheckerboard="0"
     inkscape:deskcolor="#d1d1d1"
     inkscape:document-units="px"
     inkscape:zoom="0.9074537"
     inkscape:cx="222.0499"
     inkscape:cy="185.6844"
     inkscape:window-width="1920"
     inkscape:window-height="991"
     inkscape:window-x="-9"
     inkscape:window-y="-9"
     inkscape:window-maximized="1"
     inkscape:current-layer="layer1" /><defs
     id="defs1" /><g
     inkscape:label="Capa 1"
     inkscape:groupmode="layer"
     id="layer1"><path
       style="fill:#b3b3b3;fill-opacity:1;stroke-width:0.273655"
       d="m 70.104724,77.481778 c -23.27036,-15.65946 -3.95147,-50.337165 21.73304,-39.011165 2.85516,1.259026 3.342,-0.101249 3.84584,-10.745569 0.54737,-11.563769 0.82274,-12.187075 5.384156,-12.187075 h 4.8073 l 0.5512,28.843767 c 0.64912,33.968362 -4.04533,50.857662 -9.754306,35.093252 -0.69637,-1.92292 -1.68466,-1.92292 -4.94145,0 -6.17595,3.64649 -14.36689,2.89155 -21.62578,-1.99321 z m 20.68927,-10.15249 c 8.27123,-8.27124 3.05537,-21.986094 -8.36147,-21.986094 -6.19816,0 -12.13144,6.583254 -12.13144,13.460424 0,12.2334 11.8537,17.16489 20.49291,8.52567 z m 36.989386,11.67091 c -8.71648,-4.73765 -12.16967,-12.4177 -11.54512,-25.67689 0.55472,-11.777048 22.89824,-22.983907 30.55609,-15.326056 1.74291,1.742915 3.40068,1.662797 7.15365,-0.34573 7.66425,-4.101784 8.84816,-0.927025 8.24066,22.098156 -0.57508,21.79662 -2.94497,26.19695 -10.66035,19.79375 -1.86319,-1.54631 -3.15053,-1.51688 -4.7766,0.1092 -3.01564,3.01564 -12.84151,2.67768 -18.96833,-0.65243 z m 19.43441,-10.58199 c 7.8965,-7.89651 1.93867,-23.075014 -9.05736,-23.075014 -12.02126,0 -16.71458,15.316084 -7.02812,22.935454 6.37097,5.0114 11.17198,5.05306 16.08548,0.13956 z m 32.12974,12.25959 c -0.74968,-0.74968 -1.36306,-8.48142 -1.36306,-17.18164 0,-12.28709 -0.64394,-16.065686 -2.88438,-16.925424 -1.5864,-0.608761 -2.88437,-3.297281 -2.88437,-5.974485 0,-3.04485 1.08011,-4.867644 2.88437,-4.867644 2.02472,0 2.88438,-2.043938 2.88438,-6.857935 0,-6.346946 0.39402,-6.812601 5.28802,-6.249484 4.44133,0.51103 5.29801,1.532129 5.35039,6.377207 0.0483,4.466971 1.02462,5.907415 4.32656,6.383225 5.70974,0.82277 6.0434,9.856353 0.41837,11.327332 -2.54184,0.664706 -3.91227,2.72265 -4.04176,6.069458 -0.10777,2.78506 -0.32409,10.25563 -0.48073,16.60126 -0.27923,11.31154 -4.48335,16.31257 -9.49779,11.29813 z m 33.02324,-6.26461 c -10.39449,-10.39448 -10.73901,-22.33518 -0.92753,-32.146664 6.95687,-6.956878 18.96429,-9.1103 23.80532,-4.269272 1.74291,1.742915 3.34918,1.690357 6.93144,-0.226805 7.7537,-4.149657 8.87533,-1.469593 8.87533,21.207001 0,22.70086 -1.97168,26.93352 -9.41049,20.20151 -3.12558,-2.82863 -3.75795,-2.85348 -5.93258,-0.23321 -4.70597,5.67033 -15.17072,3.63823 -23.34149,-4.53256 z m 23.30124,-5.99498 c 8.27745,-8.27747 2.18175,-23.075014 -9.50556,-23.075014 -11.05804,0 -15.35506,13.772574 -6.92666,22.200964 5.72244,5.72244 11.2878,6.01846 16.43222,0.87405 z m 28.20277,12.17848 c -0.70504,-0.70507 -1.28193,-15.84805 -1.28193,-33.651062 V 14.576511 h 5.76876 5.76874 v 12.498965 c 0,11.463472 1.80484,15.43412 4.80731,10.576046 5.25035,-8.495268 26.77018,2.7866 29.63032,15.533846 4.05628,18.07831 -20.06138,38.49725 -30.54729,25.8625 -2.06853,-2.49241 -2.68768,-2.49241 -5.1801,0 -3.00417,3.00415 -6.84667,3.66794 -8.96581,1.54882 z m 30.80302,-12.51367 c 8.80429,-8.27122 3.68332,-22.739824 -8.04848,-22.739824 -4.5496,0 -7.41426,1.287944 -9.50556,4.273698 -9.62186,13.737136 5.5731,29.721626 17.55404,18.466126 z m 24.59473,9.46905 c -3.33972,-13.36545 -0.0736,-40.862005 4.85369,-40.862005 4.75085,0 4.8139,0.214431 5.37104,18.267715 0.6785,21.98569 -0.30614,26.92086 -5.37104,26.92086 -2.31001,0 -4.19169,-1.67733 -4.85369,-4.32657 z m 23.4676,3.07032 c -4.06061,-4.0606 -0.72379,-11.72121 9.68894,-22.24374 12.04579,-12.17281 12.44325,-11.063959 -4.26637,-11.902096 -4.75832,-0.238671 -5.87533,-1.205296 -6.37722,-5.518651 l -0.60844,-5.229296 h 18.39542 18.39545 v 6.321769 c 0,5.04151 -1.94711,8.239604 -9.61458,15.791784 -11.88563,11.7069 -11.89865,12.49897 -0.20574,12.49897 9.60671,0 12.84473,2.58379 10.59271,8.45245 -1.09144,2.84428 -33.34618,4.48282 -36.00017,1.82881 z M 17.338562,76.373258 C 6.28946,69.635308 2.053914,58.140888 7.12713,48.661503 18.196639,27.977935 49.148994,34.616058 49.148994,57.673618 c 0,17.3943 -17.286928,27.55636 -31.810432,18.69964 z M 384.8732,43.703563 c -0.55733,-0.901796 0.20403,-3.281406 1.69193,-5.288023 3.06116,-4.128394 10.55316,0.46519 7.86163,4.820209 -1.54104,2.493453 -8.10305,2.814776 -9.55356,0.467814 z M 319.20488,25.929492 c -0.71637,-1.159095 0.0545,-3.464372 1.71292,-5.122842 3.58976,-3.589747 9.47762,-0.157177 7.69569,4.486497 -1.24158,3.235475 -7.53902,3.661398 -9.40861,0.636345 z"
       id="path1" /></g></svg>
