<?xml version="1.0" encoding="UTF-8" standalone="no"?>
<!-- Created with Inkscape (http://www.inkscape.org/) -->

<svg
   width="200"
   height="100"
   viewBox="0 0 200 100"
   version="1.1"
   id="svg1"
   xml:space="preserve"
   inkscape:version="1.3 (0e150ed6c4, 2023-07-21)"
   sodipodi:docname="maker.svg"
   xmlns:inkscape="http://www.inkscape.org/namespaces/inkscape"
   xmlns:sodipodi="http://sodipodi.sourceforge.net/DTD/sodipodi-0.dtd"
   xmlns="http://www.w3.org/2000/svg"
   xmlns:svg="http://www.w3.org/2000/svg"><sodipodi:namedview
     id="namedview1"
     pagecolor="#ffffff"
     bordercolor="#000000"
     borderopacity="0.25"
     inkscape:showpageshadow="2"
     inkscape:pageopacity="0.0"
     inkscape:pagecheckerboard="0"
     inkscape:deskcolor="#d1d1d1"
     inkscape:document-units="px"
     inkscape:zoom="4"
     inkscape:cx="102.125"
     inkscape:cy="57.625"
     inkscape:window-width="1920"
     inkscape:window-height="991"
     inkscape:window-x="-9"
     inkscape:window-y="-9"
     inkscape:window-maximized="1"
     inkscape:current-layer="layer1" /><defs
     id="defs1" /><g
     inkscape:label="Capa 1"
     inkscape:groupmode="layer"
     id="layer1"><path
       style="fill:#b3b3b3"
       d="m 47.787437,70.489719 c -2.373852,-0.957794 -4.04959,-3.006691 -2.459093,-3.006691 0.556198,0 -0.09464,-1.193299 -1.446314,-2.651776 -11.632999,-12.552212 5.898688,-30.922957 18.397776,-19.278285 1.242311,1.157389 2.883634,1.864552 3.647385,1.571473 2.008826,-0.770858 3.876585,5.651615 3.084364,10.605892 -1.566997,9.799463 -12.407696,16.316609 -21.224118,12.759387 z m 11.617658,-3.286002 c 4.902365,-2.480625 9.916245,-14.720689 6.030015,-14.720689 -0.55,0 -1,0.898704 -1,1.997119 0,2.85078 -6.786135,9.979233 -11.498915,12.078964 l -4.001085,1.782643 4,0.05589 c 2.2,0.03074 5.111493,-0.506527 6.469985,-1.193932 z M 37.93511,65.773376 C 25.627489,59.48197 22.668948,44.428502 31.819218,34.654863 c 8.199643,-8.758251 22.62128,-8.021331 29.865892,1.526093 4.339931,5.719445 3.804681,7.63014 -1.429091,5.101456 -13.647783,-6.593891 -27.87586,7.8899 -20.899235,21.274848 2.58615,4.961636 2.476826,5.20895 -1.421674,3.216116 z M 85.886509,58.216971 C 85.5842,57.429166 85.471463,53.744873 85.635983,50.029654 l 0.299127,-6.754945 4.442488,-0.328008 c 2.443368,-0.180405 5.230151,0.09354 6.192852,0.608759 1.141039,0.610665 2.64352,0.529819 4.31606,-0.23224 5.30405,-2.416689 7.67686,0.364038 7.33857,8.600177 -0.38882,9.466262 -3.02793,10.204126 -3.78997,1.059631 -0.43056,-5.166667 -0.77778,-6 -2.5,-6 -1.72222,0 -2.06944,0.833333 -2.5,6 -0.70849,8.501906 -3.153866,8.338727 -4.431773,-0.295731 -1.330972,-8.993002 -4.80203,-8.857182 -5.568227,0.217882 -0.480144,5.686968 -2.337667,8.467437 -3.548601,5.311792 z m 26.932901,-1.270174 c -2.22478,-3.395455 0.054,-6.948204 5.05884,-7.887125 5.39708,-1.012497 4.44787,-2.832805 -1.04746,-2.008729 -5.22982,0.784259 -5.09674,-2.851889 0.1526,-4.169387 6.49626,-1.630459 10.03304,2.966462 9.27437,12.054333 l -0.32265,3.864851 -5.75069,0.304913 c -5.17706,0.274498 -5.91171,0.05916 -7.36501,-2.158856 z m 7.4157,-1.663769 c 1.86216,-1.862161 1.42211,-2.970791 -1.03978,-2.619551 -1.23189,0.175753 -2.38988,1.107051 -2.57333,2.069551 -0.38232,2.005947 1.82166,2.341445 3.61311,0.55 z m 10.45,3.481721 c -2.41548,-0.866456 -1.69601,-21.281721 0.75,-21.281721 1.75758,0 2,0.666667 2,5.5 0,6.30632 0.62855,6.668185 4.34242,2.5 4.17558,-4.686378 7.53505,-3.202269 3.72256,1.644515 -2.57149,3.269125 -2.58137,4.42928 -0.065,7.628356 4.10229,5.215216 0.62855,6.788711 -3.81291,1.727129 -3.19257,-3.638332 -4.18707,-3.771108 -4.18707,-0.559017 0,2.674379 -0.82834,3.530056 -2.75,2.840738 z m 17.20455,-1.736266 c -6.61553,-6.61553 0.70825,-17.687125 8.86119,-13.395751 6.16222,3.243539 5.32868,8.850296 -1.31574,8.850296 -2.7681,0 -5,0.46039 -5,1.031385 0,1.704642 3.13339,2.366408 5.17314,1.092558 2.13898,-1.335812 3.82686,-0.718374 3.82686,1.39989 0,3.857989 -8.00109,4.565981 -11.54545,1.021622 z m 8.04982,-8.552518 c 0.79429,-1.285201 -2.01458,-2.394864 -4.06775,-1.606989 -2.00377,0.768919 -0.90026,2.614052 1.56338,2.614052 1.03508,0 2.16205,-0.453178 2.50437,-1.007063 z m 8.86421,9.790368 c -0.51237,-0.705818 -0.83547,-3.308305 -0.71798,-5.783305 0.11748,-2.475 0.24416,-5.441227 0.2815,-6.591615 0.0583,-1.795599 0.7127,-2.101364 4.62399,-2.160493 4.90372,-0.07413 6.35079,2.905184 1.73171,3.565367 -1.9148,0.273673 -2.22943,1.021887 -2.48978,5.920995 -0.29527,5.555952 -1.63239,7.524559 -3.42944,5.049051 z"
       id="path1" /></g></svg>
