<?xml version="1.0" encoding="UTF-8" standalone="no"?>
<!-- Created with Inkscape (http://www.inkscape.org/) -->

<svg
   width="200"
   height="100"
   viewBox="0 0 200 100"
   version="1.1"
   id="svg1"
   xml:space="preserve"
   inkscape:version="1.3 (0e150ed6c4, 2023-07-21)"
   sodipodi:docname="meet.svg"
   xmlns:inkscape="http://www.inkscape.org/namespaces/inkscape"
   xmlns:sodipodi="http://sodipodi.sourceforge.net/DTD/sodipodi-0.dtd"
   xmlns="http://www.w3.org/2000/svg"
   xmlns:svg="http://www.w3.org/2000/svg"><sodipodi:namedview
     id="namedview1"
     pagecolor="#ffffff"
     bordercolor="#000000"
     borderopacity="0.25"
     inkscape:showpageshadow="2"
     inkscape:pageopacity="0.0"
     inkscape:pagecheckerboard="0"
     inkscape:deskcolor="#d1d1d1"
     inkscape:document-units="px"
     inkscape:zoom="4"
     inkscape:cx="102"
     inkscape:cy="57.625"
     inkscape:window-width="1920"
     inkscape:window-height="991"
     inkscape:window-x="-9"
     inkscape:window-y="-9"
     inkscape:window-maximized="1"
     inkscape:current-layer="layer1" /><defs
     id="defs1" /><g
     inkscape:label="Capa 1"
     inkscape:groupmode="layer"
     id="layer1"><path
       style="fill:#b3b3b3"
       d="m 23.817462,65.758824 c -5.20296,-4.092645 -4.26689,-11.59228 1.80661,-14.474346 6.19446,-2.939464 12.44615,1.148667 12.44615,8.138843 0,7.113483 -8.47466,10.880559 -14.25276,6.335503 z m 89.450848,-1.68863 c -4.36187,-2.149653 -6.56978,-6.519397 -5.88262,-11.642515 1.55083,-11.5623 17.06346,-13.156619 20.7033,-2.127792 1.87493,5.681087 1.02796,6.438823 -7.23739,6.474924 -6.73464,0.02942 -7.13121,0.146236 -5.28138,1.555793 1.30551,0.994794 3.09441,1.321663 5.1517,0.941325 2.75113,-0.50861 6.3483,1.200832 6.3483,3.016827 0,2.847017 -9.22398,4.037572 -13.80191,1.781438 z m 8.05191,-13.827186 c -0.37193,-1.487724 -6.51307,-1.210797 -7.02222,0.316658 -0.32345,0.970359 0.57518,1.233372 3.41667,1 2.12055,-0.174162 3.74305,-0.766658 3.60555,-1.316658 z m 18.08266,14.834637 c -8.42141,-1.756581 -11.0429,-14.034889 -4.22193,-19.774356 6.67655,-5.617948 16.97603,-1.446265 17.25749,6.989945 l 0.13178,3.949774 -7.5,0.5 c -6.82285,0.454857 -7.29156,0.618869 -5.19135,1.816573 1.29093,0.73619 3.50365,1.054107 5.01946,0.721181 3.83085,-0.841395 7.29447,1.722343 5.17189,3.828184 -1.65076,1.637749 -7.27644,2.675989 -10.66734,1.968699 z m 6.16734,-14.834637 c 0,-1.187638 -4.01814,-1.898884 -6.13611,-1.086144 -0.81986,0.31461 -1.1949,1.050558 -0.83342,1.63544 0.81237,1.314455 6.96953,0.829185 6.96953,-0.549296 z m 19.5,14.704954 c -4.65137,-0.720599 -6,-2.936831 -6,-9.859942 0,-5.547369 -0.23676,-6.345012 -1.88337,-6.345012 -1.90872,0 -3.13917,-2.46554 -2.37054,-4.75 0.23132,-0.6875 1.25319,-1.25 2.27082,-1.25 1.27507,0 1.94861,-0.854871 2.16667,-2.75 0.50263,-4.368362 6.81642,-4.720138 6.81642,-0.379781 0,2.52601 0.43212,3.046658 2.75,3.313359 4.39711,0.505943 4.6383,5.816422 0.26416,5.816422 h -3.11868 l 0.30226,5.209362 c 0.26816,4.621595 0.58433,5.275448 2.80226,5.795085 5.50447,1.289639 1.80472,6.099785 -4,5.200507 z M 70.498992,63.417991 c -0.27965,-0.728759 -0.37802,-5.566259 -0.21861,-10.75 l 0.28984,-9.424983 7,-0.21817 c 3.85,-0.119993 7.95625,0.263444 9.125,0.852082 1.51943,0.765259 2.71183,0.756188 4.18426,-0.03183 8.09289,-4.331182 13.190738,0.852033 13.190738,13.411617 v 7.613018 l -3.25,-0.313359 -3.249998,-0.313358 -0.5,-7.490576 c -0.73579,-11.023033 -7.30309,-11.572169 -6.9791,-0.58357 0.25262,8.56783 0.25042,8.574146 -2.97709,8.574146 h -2.95619 l -0.29381,-7.145232 c -0.52034,-12.654342 -6.79381,-13.010919 -6.79381,-0.386153 v 7.531385 h -3.03138 c -1.66727,0 -3.2602,-0.596257 -3.53985,-1.325017 z m -29.50569,-16.59806 c -3.33838,-3.338379 -3.65856,-6.023268 -1.21217,-10.164687 3.25959,-5.518039 11.0701,-5.918369 14.68818,-0.752848 6.28619,8.974795 -5.70453,18.689023 -13.47601,10.917535 z M 175.46021,40.316915 c -0.9098,-2.370891 0.3775,-4.765333 2.35699,-4.384119 1.10702,0.213194 1.75302,1.248775 1.75302,2.810212 0,2.850627 -3.15628,4.059306 -4.11001,1.573907 z"
       id="path1" /></g></svg>
