<?xml version="1.0" encoding="UTF-8" standalone="no"?>
<svg
   viewBox="0 0 2186 2000"
   version="1.1"
   id="svg69"
   sodipodi:docname="cookie-icon.svg"
   inkscape:version="1.3 (0e150ed6c4, 2023-07-21)"
   width="2186"
   height="2000"
   xmlns:inkscape="http://www.inkscape.org/namespaces/inkscape"
   xmlns:sodipodi="http://sodipodi.sourceforge.net/DTD/sodipodi-0.dtd"
   xmlns="http://www.w3.org/2000/svg"
   xmlns:svg="http://www.w3.org/2000/svg">
  <sodipodi:namedview
     id="namedview69"
     pagecolor="#ffffff"
     bordercolor="#000000"
     borderopacity="0.25"
     inkscape:showpageshadow="2"
     inkscape:pageopacity="0.0"
     inkscape:pagecheckerboard="0"
     inkscape:deskcolor="#d1d1d1"
     inkscape:zoom="0.27077657"
     inkscape:cx="1469.8465"
     inkscape:cy="1176.2465"
     inkscape:window-width="1920"
     inkscape:window-height="991"
     inkscape:window-x="-9"
     inkscape:window-y="-9"
     inkscape:window-maximized="1"
     inkscape:current-layer="svg69" />
  <path
     d="M 0,0 H 2936.5248 V 2936.5248 H 0 Z"
     fill="#f7cf01"
     id="path1"
     style="display:none;stroke-width:2.8677" />
  <path
     d="m 1858.499,2242.5127 1.778,-0.1032 c 13.8538,-0.6366 27.9257,1.1815 41.7537,2.1393 l 76.5475,6.4753 c 69.1575,7.2151 138.1515,15.3938 206.3999,28.8978 41.0769,8.1299 80.5737,16.9997 119.6691,32.4394 16.7244,6.6043 35.8577,13.9772 49.3101,26.228 6.2401,5.678 14.7141,15.3164 14.8805,24.103 0.2208,11.4536 -7.1435,22.6749 -15.1587,30.2657 -27.1399,25.7089 -69.2349,38.4788 -104.5334,48.2146 l -87.9065,21.1321 c -81.1501,16.5151 -162.8194,29.6004 -245.2428,38.1605 l -87.6283,6.6187 -382.3504,15.1299 -143.5514,-2.0504 c -186.0248,-7.7571 -373.66129,-22.1071 -555.41611,-64.0759 -49.78041,-11.4966 -130.44307,-28.9408 -166.44991,-67.9845 -5.65797,-6.134 -11.81493,-14.5765 -11.57978,-23.3058 0.23229,-8.6375 7.31551,-18.8896 13.63018,-24.3497 19.53191,-16.8936 44.83076,-26.7327 68.79613,-35.244 65.15127,-23.1395 134.75895,-34.2088 203.17654,-42.9065 27.66184,12.6494 53.0037,29.9531 80.86914,42.3158 117.89971,52.3039 244.47141,71.6781 372.68631,71.1361 33.3857,0.195 66.5249,-3.4613 99.6382,-7.2266 62.123,-7.0631 125.2526,-17.7482 185.5316,-34.5156 5.3483,0.433 10.6793,-1.8353 15.8899,-2.9337 16.5839,-3.49 31.8745,-8.322 47.9623,-13.5212 l 53.0897,-16.7129 96.1311,-37.217 35.5681,-13.6589 c 5.8271,-2.3601 11.2557,-3.794 16.5007,-7.4503 z"
     id="path5"
     style="display:none;stroke-width:2.8677" />
  <defs
     id="defs7">
    <linearGradient
       id="m"
       x1="491.98001"
       x2="492.03"
       y1="819.66998"
       y2="826.85999"
       gradientUnits="userSpaceOnUse">
      <stop
         stop-color="#A26107"
         offset="0"
         id="stop6" />
      <stop
         stop-color="#C05D0D"
         offset="1"
         id="stop7" />
    </linearGradient>
  </defs>
  <defs
     id="defs12">
    <linearGradient
       id="l"
       x1="591.01001"
       x2="369.42001"
       y1="593.97998"
       y2="197.64999"
       gradientUnits="userSpaceOnUse">
      <stop
         stop-color="#F1B146"
         offset="0"
         id="stop11" />
      <stop
         stop-color="#FEE398"
         offset="1"
         id="stop12" />
    </linearGradient>
  </defs>
  <defs
     id="defs19">
    <linearGradient
       id="h"
       x1="238.67999"
       x2="239.17999"
       y1="358.17001"
       y2="350.82999"
       gradientUnits="userSpaceOnUse">
      <stop
         stop-color="#F3A834"
         offset="0"
         id="stop18" />
      <stop
         stop-color="#E79137"
         offset="1"
         id="stop19" />
    </linearGradient>
  </defs>
  <defs
     id="defs21">
    <linearGradient
       id="g"
       x1="195.00999"
       x2="192.96001"
       y1="431.07999"
       y2="421.70001"
       gradientUnits="userSpaceOnUse">
      <stop
         stop-color="#F9DA9E"
         offset="0"
         id="stop20" />
      <stop
         stop-color="#FBF5CD"
         offset="1"
         id="stop21" />
    </linearGradient>
  </defs>
  <defs
     id="defs30">
    <linearGradient
       id="f"
       x1="247.69"
       x2="243.44"
       y1="315.35999"
       y2="354.45001"
       gradientUnits="userSpaceOnUse">
      <stop
         stop-color="#360502"
         offset="0"
         id="stop29" />
      <stop
         stop-color="#180404"
         offset="1"
         id="stop30" />
    </linearGradient>
  </defs>
  <defs
     id="defs33">
    <linearGradient
       id="e"
       x1="642.16998"
       x2="660.42999"
       y1="456.25"
       y2="399.76001"
       gradientUnits="userSpaceOnUse">
      <stop
         stop-color="#180202"
         offset="0"
         id="stop32" />
      <stop
         stop-color="#320602"
         offset="1"
         id="stop33" />
    </linearGradient>
  </defs>
  <defs
     id="defs36">
    <linearGradient
       id="d"
       x1="186.82001"
       x2="195.24001"
       y1="549.91998"
       y2="542.75"
       gradientUnits="userSpaceOnUse">
      <stop
         stop-color="#FFEFD4"
         offset="0"
         id="stop35" />
      <stop
         stop-color="#FFFFFA"
         offset="1"
         id="stop36" />
    </linearGradient>
  </defs>
  <defs
     id="defs42">
    <linearGradient
       id="c"
       x1="744.23999"
       x2="700.81"
       y1="233.46001"
       y2="176.59"
       gradientUnits="userSpaceOnUse">
      <stop
         stop-color="#190302"
         offset="0"
         id="stop41" />
      <stop
         stop-color="#350503"
         offset="1"
         id="stop42" />
    </linearGradient>
  </defs>
  <defs
     id="defs46">
    <linearGradient
       id="b"
       x1="390.51001"
       x2="360.23999"
       y1="258.5"
       y2="198.72"
       gradientUnits="userSpaceOnUse">
      <stop
         stop-color="#1B0202"
         offset="0"
         id="stop45" />
      <stop
         stop-color="#2F0503"
         offset="1"
         id="stop46" />
    </linearGradient>
  </defs>
  <defs
     id="defs48">
    <linearGradient
       id="a"
       x1="860.54999"
       x2="770.78998"
       y1="391.13"
       y2="323.62"
       gradientUnits="userSpaceOnUse">
      <stop
         stop-color="#1D0202"
         offset="0"
         id="stop47" />
      <stop
         stop-color="#330604"
         offset="1"
         id="stop48" />
    </linearGradient>
  </defs>
  <defs
     id="defs53">
    <linearGradient
       id="k"
       x1="363.31"
       x2="413.56"
       y1="701.48999"
       y2="595.28003"
       gradientUnits="userSpaceOnUse">
      <stop
         stop-color="#1C0302"
         offset="0"
         id="stop52" />
      <stop
         stop-color="#360604"
         offset="1"
         id="stop53" />
    </linearGradient>
  </defs>
  <defs
     id="defs56">
    <linearGradient
       id="j"
       x1="562.19"
       x2="497.10999"
       y1="327.32999"
       y2="218.11"
       gradientUnits="userSpaceOnUse">
      <stop
         stop-color="#210302"
         offset="0"
         id="stop55" />
      <stop
         stop-color="#380604"
         offset="1"
         id="stop56" />
    </linearGradient>
  </defs>
  <defs
     id="defs68">
    <linearGradient
       id="i"
       x1="637.03998"
       x2="609.14001"
       y1="631.96002"
       y2="483.5"
       gradientUnits="userSpaceOnUse">
      <stop
         stop-color="#1D0302"
         offset="0"
         id="stop67" />
      <stop
         stop-color="#370604"
         offset="1"
         id="stop68" />
    </linearGradient>
  </defs>
  <g
     id="g1"
     transform="matrix(1.000141,0,0,1.0009766,-397.691,-378.10022)">
    <path
       transform="scale(2.8677)"
       d="m 140.4,517.03 0.515,16.28 -0.051,5.054 -1.112,-0.257 c -1.205,-5.671 -1.923,-15.846 0.648,-21.077 z"
       fill="#fde7a7"
       id="path2" />
    <path
       transform="scale(2.8677)"
       d="m 140.91,533.31 0.355,0.287 c 2.414,2.034 3.544,4.845 5.09,7.52 1.744,3.017 3.83,5.831 5.943,8.594 4.933,6.449 10.338,12.027 16.226,17.593 2.909,2.749 5.872,5.828 9.211,8.044 6.478,4.299 13.369,7.338 20.513,10.309 2.397,0.996 4.413,2.544 6.921,3.313 3.936,1.206 8.064,1.091 11.97,2.08 -0.523,5.324 -1.246,9.627 -3.217,14.602 -6.077,12.084 -15.51,25.422 -28.331,31.06 -3.825,1.479 -12.38,5.988 -16.217,5.036 0.158,-1.009 0.483,-1.216 1.099,-2 l -0.476,-0.6 c -1.298,0.116 -1.836,0.229 -2.851,1.061 -5.822,-9.647 -9.722,-19.654 -13.399,-30.248 -8.083,-23.291 -12.204,-46.956 -12.888,-71.597 z"
       fill="#200302"
       id="path3" />
    <path
       transform="scale(2.8677)"
       d="m 140.4,486.96 c 0.826,-2.944 0.886,-6.767 1.223,-9.852 l 2.092,-16.363 c 0.456,-3.677 0.621,-7.363 1.476,-10.98 11.97,-50.64 36.73,-98.302 69.297,-138.73 14.876,-18.467 31.456,-36.636 49.002,-52.587 13.702,-12.457 28.623,-24.19 43.47,-35.2 5.296,-3.928 11.001,-7.254 16.437,-10.947 10.254,-6.968 20.255,-14.181 31.161,-20.165 14.842,-8.143 30.266,-14.882 45.928,-21.238 47.034,-19.087 96.732,-31.487 147.24,-36.769 41.756,-4.366 84.845,-2.845 126.1,4.937 6.693,1.262 13.439,2.164 20.069,3.786 14.373,3.517 28.545,8.267 42.044,14.291 12.533,5.593 25.208,12.033 35.918,20.71 -1.322,1.312 -2.578,2.498 -4.108,3.563 l -1.2,-0.207 -27.422,-7.097 -0.842,-0.717 c -2.799,-1.992 -6.49,-2.748 -9.599,-4.232 -12.911,-6.16 -26.064,-9.998 -39.87,-13.631 -19.912,-5.239 -40.267,-9.492 -60.811,-11.369 -8.901,-0.813 -17.936,-0.715 -26.866,-0.704 -6.106,0.006 -12.546,-0.383 -18.59,0.498 -31.082,1.259 -62.203,5.512 -92.687,11.62 l -11.262,1.834 -18.939,4.768 -11.464,2.586 -14.098,4.346 -15.975,4.511 -10.425,3.731 -3.957,1.027 c -25.686,8.486 -49.89,23.061 -72.255,38.016 -2.65,1.771 -8.743,4.782 -10.24,7.491 -0.242,0.438 -0.257,0.598 -0.365,1.037 -0.155,0.771 -0.35,2.468 -0.882,3.07 -1.088,1.23 -3.353,2.413 -4.718,3.458 l -19.415,14.097 -25.698,20.265 c -3.757,2.774 -7.38,5.574 -10.675,8.899 -1.079,1.088 -2.475,2.19 -3.123,3.572 l -14.222,16.852 c -2.001,2.555 -4.403,5.21 -6.015,8.014 -1.496,2.604 -4.259,4.826 -6.135,7.249 l -6.057,8.643 -10.41,13.858 -21.281,30.063 -13.295,23.034 c -15.528,27.318 -29.009,57.396 -34.526,88.517 l -2.189,12.824 c -0.084,0.465 -0.283,2.633 -0.475,2.909 -0.162,0.233 -0.507,0.255 -0.761,0.382 -0.377,-1.221 -0.465,-2.402 -0.602,-3.667 z"
       fill="#fffef9"
       id="path4" />
    <path
       transform="scale(2.8677)"
       d="m 771.85,177.86 c 3.985,3.427 9.194,6.724 12.651,10.51 4.26,0.862 8.332,4.738 11.554,7.469 10.33,8.758 19.681,18.385 28.257,28.916 1.524,1.872 2.728,3.967 4.236,5.85 12.067,13.195 22.006,27.98 31.282,43.224 6.61,10.863 13.21,22.32 17.974,34.117 1.936,4.218 3.3,8.601 5.077,12.872 1.113,2.673 2.541,5.208 3.6,7.906 2.623,6.677 4.752,14.063 6.52,21.031 10.363,40.847 9.834,82.715 1.998,123.87 -3.452,18.127 -8.079,36.151 -14.526,53.469 -22.502,60.446 -56.88,118.41 -102.61,164.26 -23.177,23.239 -50.161,44.037 -77.957,61.42 -12.468,7.798 -24.839,16.421 -38.257,22.552 l -13.398,6.113 -0.177,0.558 c -1.829,1.275 -3.722,1.775 -5.754,2.598 l -12.403,4.763 -33.522,12.978 -18.513,5.828 c -5.61,1.813 -10.942,3.498 -16.725,4.715 -1.817,0.383 -3.676,1.174 -5.541,1.023 -21.02,5.847 -43.034,9.573 -64.697,12.036 -11.547,1.313 -23.103,2.588 -34.745,2.52 -44.713,0.189 -88.85,-6.567 -129.96,-24.806 -9.717,-4.311 -18.554,-10.345 -28.2,-14.756 l -3.547,-4.247 -0.112,-0.012 c -7.068,-3.683 -13.61,-9.405 -19.905,-14.268 -9.565,-7.39 -19.024,-14.659 -27.948,-22.872 -18.324,-16.864 -34.529,-36.744 -49.188,-56.795 -10.644,-14.558 -21.574,-30.107 -27.85,-47.163 l 11.841,16.945 c 0.204,-1.614 -0.248,-2.348 -1.05,-3.736 l -8.954,-14.041 -2.049,-0.106 -2.101,-2.384 c 1.015,-0.832 1.553,-0.945 2.851,-1.061 l 0.476,0.6 c -0.616,0.784 -0.941,0.991 -1.099,2 3.837,0.952 12.392,-3.557 16.217,-5.036 3.657,6.369 9.648,12.6 14.577,18.021 4.154,4.567 8.092,9.345 12.519,13.661 15.206,14.822 32.542,27.472 50.785,38.265 2.896,1.714 6.032,2.932 9.025,4.451 13.636,6.918 27.479,12.535 42,17.332 32.782,10.829 66.911,16.958 101.5,17.549 l 12.788,-0.345 c 16.16,-0.116 32.451,-0.915 48.466,-3.184 19.224,-2.724 38.38,-7.467 57.161,-12.361 11.115,-2.896 22.001,-6.559 32.839,-10.344 l 20.645,-7.479 19.177,-9.03 c 3.034,-1.444 6.238,-2.662 9.209,-4.219 2.998,-1.572 5.738,-3.662 8.735,-5.281 3.283,-1.773 7.094,-2.932 10.234,-4.894 1.583,-0.989 2.912,-2.348 4.517,-3.327 1.98,-1.209 4.31,-1.708 6.301,-2.895 7.358,-4.385 14.436,-9.511 21.485,-14.383 7.683,-5.31 15.322,-10.431 22.6,-16.306 12.946,-10.451 24.472,-21.848 36.236,-33.543 18.648,-18.537 36.858,-36.431 52.276,-57.911 2.311,-3.22 3.971,-6.839 6.181,-10.121 1.505,-2.234 3.346,-4.235 4.87,-6.456 4.254,-6.198 7.748,-12.898 11.502,-19.392 2.004,-3.465 4.335,-6.652 6.216,-10.214 4.474,-8.469 8.054,-17.806 12.922,-25.985 2.411,-4.05 3.681,-8.356 5.608,-12.611 5.266,-11.623 10.275,-23.41 14.44,-35.478 l 7.039,-21.782 c 0.31,-1.694 0.988,-3.316 1.577,-4.931 -0.243,-1.886 -0.216,-3.003 0.653,-4.738 0.552,-1.102 0.942,-1.836 1.101,-3.087 0.752,-0.706 1.474,-1.38 2.049,-2.243 2.919,-4.389 3.76,-10.614 4.623,-15.728 4.195,-24.865 3.496,-51.408 -0.613,-76.289 -0.177,-3.758 -1.16,-7.434 -2.004,-11.087 -4.466,-19.335 -15.281,-35.795 -27.595,-51.131 -3.588,-4.468 -7.771,-8.441 -11.208,-13.023 -3.116,-4.153 -7.155,-7.712 -10.797,-11.41 l -15.479,-15.516 -13.126,-12.08 c -3.349,-3.026 -6.733,-5.679 -9.79,-9.036 l -0.546,1.925 -0.119,-0.308 c -0.587,-2.637 -0.99,-6.184 0.375,-8.559 l 1.2,0.207 c 1.53,-1.065 2.786,-2.251 4.108,-3.563 z"
       fill="#3c1004"
       id="path6" />
    <path
       transform="scale(2.8677)"
       d="m 455.21,824.59 c 19.593,0.104 38.846,-1.525 58.248,-4.141 l 22.29,-3.478 14.5,-3.032 c 0.886,-0.164 3.184,-0.9 3.994,-0.708 0.495,0.117 0.915,0.445 1.373,0.668 -21.02,5.847 -43.034,9.573 -64.697,12.036 -11.547,1.313 -23.103,2.588 -34.745,2.52 l 2.341,-0.952 -0.279,-2.219 z"
       fill="url(#m)"
       id="path7"
       style="fill:url(#m)" />
    <path
       transform="scale(2.8677)"
       d="m 294.46,784.64 c 4.232,0.569 8.83,3.462 12.649,5.406 l 16.406,8.113 c 4.437,2.115 9.158,3.896 13.736,5.695 37.045,14.56 78.45,19.433 117.96,20.73 l 3.025,0.694 0.279,2.219 -2.341,0.952 c -44.713,0.189 -88.85,-6.567 -129.96,-24.806 -9.717,-4.311 -18.554,-10.345 -28.2,-14.756 l -3.547,-4.247 z"
       fill="#c46610"
       id="path8" />
    <path
       transform="scale(2.8677)"
       d="m 828.55,230.6 c 12.067,13.195 22.006,27.98 31.282,43.224 6.61,10.863 13.21,22.32 17.974,34.117 l -0.023,0.682 c -0.122,5.566 3.469,10.385 4.081,15.877 0.555,4.993 -0.008,10.381 -0.219,15.398 l -1.338,25.032 c -0.892,11.068 -3.007,22.043 -5.088,32.933 -1.011,5.29 -1.447,10.66 -2.62,15.93 -6.159,27.679 -15.106,53.987 -25.068,80.457 -9.722,25.831 -21.288,51.737 -35.781,75.305 -18.706,30.421 -41.134,57.741 -66.704,82.61 -9.493,9.232 -19.31,18.202 -29.763,26.348 -9.776,7.617 -19.999,14.352 -30.269,21.237 -57.347,38.441 -122.22,63.621 -190.26,75.299 -21.817,3.745 -44.216,7.072 -66.421,6.753 -11.936,-0.171 -23.967,0.073 -35.876,-0.786 -20.695,-1.493 -40.841,-5.239 -60.92,-10.301 -18.514,-4.667 -35.475,-10.422 -52.77,-18.586 -3.022,-1.427 -6.239,-2.582 -9.18,-4.151 -3.421,-1.824 -6.578,-4.205 -9.849,-6.282 -8.391,-5.33 -16.241,-10.773 -24.069,-16.91 -7.65,-5.998 -15.876,-12.148 -22.648,-19.141 -1.074,-1.109 -1.93,-2.145 -2.838,-3.395 -1.543,-2.125 -5.044,-5.188 -5.682,-7.624 l -0.571,-0.391 c -1.828,-1.281 -3.068,-3.317 -5.089,-4.289 -2.742,-1.319 -5.161,-5.937 -6.931,-8.446 l -9.412,-14.106 c -1.058,-1.768 -1.718,-3.594 -2.827,-5.346 l -1.527,-2.657 c -0.478,-0.834 -2.021,-3.183 -1.785,-4.041 0.657,0.878 1.252,1.7 1.808,2.647 1.535,2.614 3.661,4.761 5.084,7.421 0.37,0.693 0.848,1.123 1.393,1.67 2.237,2.25 4.316,5.059 6.115,7.662 l 12.081,15.343 c 0.977,1.221 2.178,2.301 3.297,3.396 l 0.871,-0.275 c 8.277,7.813 16.818,15.258 26.267,21.616 17.485,11.766 37.11,22.772 56.564,30.866 66.999,27.877 144.08,29.21 214.5,15.416 10.703,-2.097 20.998,-5.289 31.411,-8.362 12.298,-3.629 24.821,-6.672 36.835,-11.272 50.682,-19.407 97.456,-45.727 139.6,-79.987 8.708,-7.079 17.502,-14.15 25.586,-21.955 10.204,-9.851 19.104,-20.293 28.248,-31.082 9.415,-11.11 18.298,-21.959 26.431,-34.061 15.131,-22.511 29.264,-46.66 39.732,-71.729 l 15.297,-40.914 c 4.123,-11.943 8.433,-23.923 11.592,-36.176 3.111,-12.068 5.41,-24.686 7.174,-37.027 1.752,-12.258 2.161,-24.144 2.764,-36.462 0.552,-11.289 0.456,-22.562 -0.452,-33.835 -0.537,-6.662 -0.998,-13.008 -3.054,-19.418 -2.685,-8.367 -7.336,-15.99 -11.646,-23.602 -1.109,-1.958 -1.8,-4.1 -2.907,-6.028 -1.241,-2.164 -2.964,-4.026 -4.231,-6.2 L 835.033,242.5 c -1.752,-2.883 -5.958,-7.833 -6.407,-11.159 l -0.07,-0.741 z"
       id="path9" />
    <path
       transform="scale(2.8677)"
       d="m 771.85,177.86 c 3.985,3.427 9.194,6.724 12.651,10.51 4.26,0.862 8.332,4.738 11.554,7.469 10.33,8.758 19.681,18.385 28.257,28.916 1.524,1.872 2.728,3.967 4.236,5.85 l 0.07,0.741 c 0.449,3.326 4.655,8.276 6.407,11.159 l 11.686,20.502 c 1.267,2.174 2.99,4.036 4.231,6.2 1.107,1.928 1.798,4.07 2.907,6.028 4.31,7.612 8.961,15.235 11.646,23.602 2.056,6.41 2.517,12.756 3.054,19.418 0.908,11.273 1.004,22.546 0.452,33.835 -0.603,12.318 -1.012,24.204 -2.764,36.462 -1.764,12.341 -4.063,24.959 -7.174,37.027 -3.159,12.253 -7.469,24.233 -11.592,36.176 l -15.297,40.914 c -10.468,25.069 -24.601,49.218 -39.732,71.729 -8.133,12.102 -17.016,22.951 -26.431,34.061 -9.144,10.789 -18.044,21.231 -28.248,31.082 -8.084,7.805 -16.878,14.876 -25.586,21.955 -42.146,34.26 -88.92,60.58 -139.6,79.987 -12.014,4.6 -24.537,7.643 -36.835,11.272 -10.413,3.073 -20.708,6.265 -31.411,8.362 -70.415,13.794 -147.5,12.461 -214.5,-15.416 -19.454,-8.094 -39.079,-19.1 -56.564,-30.866 -9.449,-6.358 -17.99,-13.803 -26.267,-21.616 -0.061,-0.26 -1.101,-1.277 -1.351,-1.555 l -5.505,-6.301 -10.398,-13.562 c -2.774,-3.531 -6.669,-7.149 -8.447,-11.318 0.204,-1.614 -0.248,-2.348 -1.05,-3.736 l -8.954,-14.041 -2.049,-0.106 -2.101,-2.384 c 1.015,-0.832 1.553,-0.945 2.851,-1.061 l 0.476,0.6 c -0.616,0.784 -0.941,0.991 -1.099,2 3.837,0.952 12.392,-3.557 16.217,-5.036 3.657,6.369 9.648,12.6 14.577,18.021 4.154,4.567 8.092,9.345 12.519,13.661 15.206,14.822 32.542,27.472 50.785,38.265 2.896,1.714 6.032,2.932 9.025,4.451 13.636,6.918 27.479,12.535 42,17.332 32.782,10.829 66.911,16.958 101.5,17.549 l 12.788,-0.345 c 16.16,-0.116 32.451,-0.915 48.466,-3.184 19.224,-2.724 38.38,-7.467 57.161,-12.361 11.115,-2.896 22.001,-6.559 32.839,-10.344 l 20.645,-7.479 19.177,-9.03 c 3.034,-1.444 6.238,-2.662 9.209,-4.219 2.998,-1.572 5.738,-3.662 8.735,-5.281 3.283,-1.773 7.094,-2.932 10.234,-4.894 1.583,-0.989 2.912,-2.348 4.517,-3.327 1.98,-1.209 4.31,-1.708 6.301,-2.895 7.358,-4.385 14.436,-9.511 21.485,-14.383 7.683,-5.31 15.322,-10.431 22.6,-16.306 12.946,-10.451 24.472,-21.848 36.236,-33.543 18.648,-18.537 36.858,-36.431 52.276,-57.911 2.311,-3.22 3.971,-6.839 6.181,-10.121 1.505,-2.234 3.346,-4.235 4.87,-6.456 4.254,-6.198 7.748,-12.898 11.502,-19.392 2.004,-3.465 4.335,-6.652 6.216,-10.214 4.474,-8.469 8.054,-17.806 12.922,-25.985 2.411,-4.05 3.681,-8.356 5.608,-12.611 5.266,-11.623 10.275,-23.41 14.44,-35.478 l 7.039,-21.782 c 0.31,-1.694 0.988,-3.316 1.577,-4.931 -0.243,-1.886 -0.216,-3.003 0.653,-4.738 0.552,-1.102 0.942,-1.836 1.101,-3.087 0.752,-0.706 1.474,-1.38 2.049,-2.243 2.919,-4.389 3.76,-10.614 4.623,-15.728 4.195,-24.865 3.496,-51.408 -0.613,-76.289 -0.177,-3.758 -1.16,-7.434 -2.004,-11.087 -4.466,-19.335 -15.281,-35.795 -27.595,-51.131 -3.588,-4.468 -7.771,-8.441 -11.208,-13.023 -3.116,-4.153 -7.155,-7.712 -10.797,-11.41 l -15.479,-15.516 -13.126,-12.08 c -3.349,-3.026 -6.733,-5.679 -9.79,-9.036 l -0.546,1.925 -0.119,-0.308 c -0.587,-2.637 -0.99,-6.184 0.375,-8.559 l 1.2,0.207 c 1.53,-1.065 2.786,-2.251 4.108,-3.563 z"
       fill="#944202"
       id="path10" />
    <path
       transform="scale(2.8677)"
       d="m 771.85,177.86 c 3.985,3.427 9.194,6.724 12.651,10.51 -2.633,0.25 -7.835,-3.372 -10.524,-4.604 -2.016,-0.924 -4.14,-1.624 -6.235,-2.343 1.53,-1.065 2.786,-2.251 4.108,-3.563 z"
       fill="#f8d2ac"
       id="path11" />
    <path
       transform="scale(2.8677)"
       d="m 582.54,143.96 c 6.044,-0.881 12.484,-0.492 18.59,-0.498 8.93,-0.011 17.965,-0.109 26.866,0.704 20.544,1.877 40.899,6.13 60.811,11.369 13.806,3.633 26.959,7.471 39.87,13.631 3.109,1.484 6.8,2.24 9.599,4.232 l 0.842,0.717 27.422,7.097 c -1.365,2.375 -0.962,5.922 -0.375,8.559 l 0.119,0.308 0.546,-1.925 c 3.057,3.357 6.441,6.01 9.79,9.036 l 13.126,12.08 15.479,15.516 c 3.642,3.698 7.681,7.257 10.797,11.41 3.437,4.582 7.62,8.555 11.208,13.023 12.314,15.336 23.129,31.796 27.595,51.131 0.844,3.653 1.827,7.329 2.004,11.087 4.109,24.881 4.808,51.424 0.613,76.289 -0.863,5.114 -1.704,11.339 -4.623,15.728 -0.575,0.863 -1.297,1.537 -2.049,2.243 -0.159,1.251 -0.549,1.985 -1.101,3.087 -0.869,1.735 -0.896,2.852 -0.653,4.738 -0.589,1.615 -1.267,3.237 -1.577,4.931 l -7.039,21.782 c -4.165,12.068 -9.174,23.855 -14.44,35.478 -1.927,4.255 -3.197,8.561 -5.608,12.611 -4.868,8.179 -8.448,17.516 -12.922,25.985 -1.881,3.562 -4.212,6.749 -6.216,10.214 -3.754,6.494 -7.248,13.194 -11.502,19.392 -1.524,2.221 -3.365,4.222 -4.87,6.456 -2.21,3.282 -3.87,6.901 -6.181,10.121 -15.418,21.48 -33.628,39.374 -52.276,57.911 -11.764,11.695 -23.29,23.092 -36.236,33.543 -7.278,5.875 -14.917,10.996 -22.6,16.306 -7.049,4.872 -14.127,9.998 -21.485,14.383 -1.991,1.187 -4.321,1.686 -6.301,2.895 -1.605,0.979 -2.934,2.338 -4.517,3.327 -3.14,1.962 -6.951,3.121 -10.234,4.894 -2.997,1.619 -5.737,3.709 -8.735,5.281 -2.971,1.557 -6.175,2.775 -9.209,4.219 l -19.177,9.03 -20.645,7.479 c -10.838,3.785 -21.724,7.448 -32.839,10.344 -18.781,4.894 -37.937,9.637 -57.161,12.361 -16.015,2.269 -32.306,3.068 -48.466,3.184 l -12.788,0.345 c -34.585,-0.591 -68.714,-6.72 -101.5,-17.549 -14.521,-4.797 -28.364,-10.414 -42,-17.332 -2.993,-1.519 -6.129,-2.737 -9.025,-4.451 -18.243,-10.793 -35.579,-23.443 -50.785,-38.265 -4.427,-4.316 -8.365,-9.094 -12.519,-13.661 -4.929,-5.421 -10.92,-11.652 -14.577,-18.021 12.821,-5.638 22.254,-18.976 28.331,-31.06 1.971,-4.975 2.694,-9.278 3.217,-14.602 -3.906,-0.989 -8.034,-0.874 -11.97,-2.08 -2.508,-0.769 -4.524,-2.317 -6.921,-3.313 -7.144,-2.971 -14.035,-6.01 -20.513,-10.309 -3.339,-2.216 -6.302,-5.295 -9.211,-8.044 -5.888,-5.566 -11.293,-11.144 -16.226,-17.593 -2.113,-2.763 -4.199,-5.577 -5.943,-8.594 -1.546,-2.675 -2.676,-5.486 -5.09,-7.52 l -0.355,-0.287 -0.515,-16.28 c 0.154,-1.635 -0.035,-3.106 -0.253,-4.728 l -0.574,-0.804 c -0.313,-7.699 -0.489,-16.916 0.827,-24.535 0.137,1.265 0.225,2.446 0.602,3.667 0.254,-0.127 0.599,-0.149 0.761,-0.382 0.192,-0.276 0.391,-2.444 0.475,-2.909 l 2.189,-12.824 c 5.517,-31.121 18.998,-61.199 34.526,-88.517 l 13.295,-23.034 21.281,-30.063 10.41,-13.858 6.057,-8.643 c 1.876,-2.423 4.639,-4.645 6.135,-7.249 1.612,-2.804 4.014,-5.459 6.015,-8.014 l 14.222,-16.852 c 0.648,-1.382 2.044,-2.484 3.123,-3.572 3.295,-3.325 6.918,-6.125 10.675,-8.899 l 25.698,-20.265 19.415,-14.097 c 1.365,-1.045 3.63,-2.228 4.718,-3.458 0.532,-0.602 0.727,-2.299 0.882,-3.07 0.108,-0.439 0.123,-0.599 0.365,-1.037 1.497,-2.709 7.59,-5.72 10.24,-7.491 22.365,-14.955 46.569,-29.53 72.255,-38.016 l 3.957,-1.027 10.425,-3.731 15.975,-4.511 14.098,-4.346 11.464,-2.586 18.939,-4.768 11.262,-1.834 c 30.484,-6.108 61.605,-10.361 92.687,-11.62 z"
       fill="url(#l)"
       id="path12"
       style="fill:url(#l)" />
    <path
       transform="scale(2.8677)"
       d="m 631.65,452.6 6.181,3.14 3.603,4.531 c -5.29,-1.593 -6.765,-2.955 -9.784,-7.671 z"
       fill="#e9a33f"
       id="path13" />
    <path
       transform="scale(2.8677)"
       d="m 286.75,456 c -0.925,0.469 -1.859,0.748 -2.882,0.917 l -1.728,0.317 c -1.988,0.443 -6.471,-1.623 -8.644,-2.149 -1.059,-0.256 -1.318,-0.204 -2.243,-0.831 0.854,-0.431 2.23,0.045 3.12,0.375 1.535,0.569 3.255,1.089 4.875,1.375 l 0.25,-0.75 c -0.714,-1.665 -0.161,-3.21 -0.875,-4.875 -1.148,-0.492 -0.646,-0.156 -1.519,-0.991 l 0.807,-0.609 z"
       fill="#f9d77b"
       id="path14" />
    <path
       transform="scale(2.8677)"
       d="m 732.17,460.27 c 8.365,-1.074 16.124,1.616 24.324,2.364 l -7.145,0.795 -3.406,-0.004 -8.736,0.529 c -1.328,-0.636 -2.716,-1.012 -4.124,-1.426 0.44,-0.912 0.283,-0.409 0.415,-1.526 z"
       fill="#f8d2ac"
       id="path15" />
    <path
       transform="scale(2.8677)"
       d="m 637.83,455.74 c 9.375,3.732 18.152,5.562 28.284,4.546 -0.738,1.664 -0.793,2.137 -2.365,3.153 -4.496,-0.982 -9.104,-0.079 -13.634,-0.554 -3.01,-0.316 -5.896,-1.483 -8.682,-2.614 z"
       fill="#e08e2e"
       id="path16" />
    <path
       transform="scale(2.8677)"
       d="m 256.37,278.29 c 0.648,-1.382 2.044,-2.484 3.123,-3.572 3.295,-3.325 6.918,-6.125 10.675,-8.899 0.085,4.42 -0.778,11.07 -3.85,14.391 -1.339,1.447 -2.63,2.382 -4.564,2.78 -1.275,-0.807 -2.19,-1.594 -3.25,-2.669 l -1.255,-0.068 c -0.651,-0.977 -0.5,-0.45 -0.499,-1.569 z"
       fill="#fde7a7"
       id="path17" />
    <path
       transform="scale(2.8677)"
       d="m 625.24,182.16 c -0.443,2.64 -3.206,3.388 -4.361,5.509 -0.651,1.197 0.919,1.624 -0.007,2.382 -0.979,0.803 -1.105,1 -1.751,2.078 -1.119,1.866 -1.959,1.372 -3.5,2 -0.221,0.09 -1.059,1.649 -1.128,1.75 l -0.997,1.125 c -0.774,0.884 -1.368,1.767 -2,2.75 l -0.5,0.75 -1.141,2.241 c -0.609,1.368 0.302,-0.628 -0.859,1.259 l -0.25,1 -1.211,2.32 c -0.429,0.798 -0.477,1.382 -0.789,2.18 -0.315,0.806 -0.699,1.277 -0.875,2.153 -0.219,1.09 -0.923,1.612 -1.125,2.847 -0.139,0.85 -0.323,1.311 -0.625,2.125 l -1.008,4.477 c -0.171,0.856 -0.097,0.514 -0.172,1.484 -0.152,1.98 0.099,-0.505 -0.445,1.664 l 0.045,1.352 c 0.061,0.919 0.089,1.732 -0.045,2.648 l 0.375,0.875 c 0.328,0.933 0.221,1.939 0.375,2.875 l 0.5,1.5 c 0.6,-0.73 0.812,-1.085 1,-2 l 0.133,-0.586 c 0.202,-1.011 0.235,-1.915 0.495,-2.914 l 0.122,-1.25 0.25,-1.25 0.117,-0.648 c 0.102,-0.511 0.383,-0.972 0.508,-1.477 l 0.003,-1.375 -0.875,-0.125 c -0.317,-1.119 -0.358,-0.562 -0.013,-1.422 0.272,-0.681 0.379,-1.239 0.513,-1.951 l 1,-4.5 c 0.651,-2.409 1.434,-4.869 3.545,-6.451 0.369,-0.276 0.541,-0.341 0.952,-0.551 0.636,-0.955 1.069,-1.696 1.5,-2.75 0.454,-1.108 0.185,-0.685 1,-1.5 l 0.003,-0.625 0.997,-0.875 0.003,-0.625 c 1.215,-1.115 2.042,-1.843 2.872,-3.25 l 1.125,-1.375 c 0.835,-1.086 1.342,-2.024 1.609,-3.359 0.244,-1.221 0.951,-2.098 1.141,-3.386 l 0.747,-0.13 c 0.422,1.532 -0.712,3.945 -1.55,5.321 -1.706,2.801 -3.983,5.144 -5.888,7.796 -1.222,1.7 -1.991,3.549 -3.043,5.336 -0.575,0.978 -0.738,1.834 -0.938,2.944 l -4.104,12.872 c -0.839,3.054 -0.769,9.046 -2.92,11.257 l -0.804,-0.26 -0.159,-0.496 -0.237,-0.834 c -0.839,-2.851 -0.936,-5.43 -0.841,-8.389 0.506,-15.711 12.123,-32.192 23.231,-42.516 z"
       fill="#e9a33f"
       id="path18" />
    <path
       transform="scale(2.8677)"
       d="m 270.08,331.98 c 1.377,2.894 1.256,5.525 0.154,8.517 -2.657,7.211 -7.863,12.601 -14.739,16.032 -1.676,0.836 -3.262,1.726 -5.003,2.427 l -0.463,0.202 c -2.663,1.097 -8.052,0.806 -10.784,0.064 l -0.588,-0.113 c -0.976,-0.214 -1.807,-0.643 -2.673,-1.121 -0.844,-0.466 -1.714,-0.596 -2.648,-0.782 l -0.841,-0.176 -0.794,-0.151 c -2.251,-0.78 -5.289,-4.908 -6.674,-6.909 l -2.097,-2.682 c -1.331,-1.652 -2.237,-3.458 -2.608,-5.536 l -0.134,-0.693 c -0.519,-2.906 0.298,-5.028 1.298,-7.72 0.391,2.652 0.061,5.589 0.804,8.172 1.59,5.531 7.641,9.673 12.521,12.188 4.86,2.504 11.865,3.988 17.185,2.088 l 0.749,-0.286 c 2.9,-1.089 5.459,-2.544 7.905,-4.437 6.331,-4.9 8.38,-11.41 9.43,-19.084 z"
       fill="url(#h)"
       id="path19"
       style="fill:url(#h)" />
    <path
       transform="scale(2.8677)"
       d="m 166.51,437.88 c 0.307,-2.736 2.015,-4.423 4.24,-6.135 l 1,-0.59 c 3.057,-2.255 5.85,-4.694 9.25,-6.488 5.46,-2.879 12.017,-3.313 18.063,-2.88 7.3,0.522 13.494,2.518 20.187,5.387 2.028,0.869 4.865,3.104 7,2.581 l 0.5,0.745 0.625,0.002 0.25,1.75 0.873,0.25 1.502,0.753 0.78,0.374 c 2.198,1.097 5.548,2.434 7.299,4.034 l -0.174,0.619 c -0.504,0.268 -2.238,-0.77 -2.851,-1.082 l -9.628,-5.392 c -5.46,-2.743 -11.341,-4.776 -17.316,-6.014 -4.798,-0.994 -10.433,-1.173 -15.291,-0.485 l -0.819,0.127 -7,1.537 c -7.026,1.948 -12.753,6.603 -18.49,10.907 z"
       fill="url(#g)"
       id="path21"
       style="fill:url(#g)" />
    <path
       transform="scale(2.8677)"
       d="m 258.1,606.07 c 1.675,-0.092 3.511,-0.283 5.162,0.05 2.558,0.518 4.823,2.076 6.242,4.253 1.551,2.381 1.573,5.717 0.864,8.402 -0.809,3.063 -3.27,5.378 -5.967,6.801 -1.887,0.22 -3.712,0.48 -5.595,0.11 -2.911,-0.571 -5.524,-2.239 -7.038,-4.871 -1.163,-2.021 -0.953,-4.691 -0.333,-6.842 1.238,-4.295 2.799,-5.879 6.665,-7.903 z"
       fill="#e9a33f"
       id="path22" />
    <path
       transform="scale(2.8677)"
       d="m 632.6,354.13 c 1.853,-0.14 3.754,0.213 5.593,0.437 2.6,2.234 4.605,4.661 6.229,7.684 0.155,3.044 0.109,6.61 -1.747,9.232 -1.944,2.746 -6.364,4.143 -9.49,4.976 -2.664,0.057 -4.906,-0.361 -7.099,-1.974 -2.273,-1.672 -4.787,-4.829 -5.119,-7.733 -0.304,-2.653 0.505,-5.533 2.145,-7.644 2.588,-3.332 5.453,-4.346 9.488,-4.978 z"
       fill="#e08e2e"
       id="path23" />
    <path
       transform="scale(2.8677)"
       d="m 369.77,498.18 c 1.418,-0.124 3.373,0.142 4.682,0.708 3.576,1.546 5.363,4.517 6.577,8.091 0.831,2.446 0.467,5.23 -0.778,7.48 -2.415,4.363 -5.571,5.904 -10.145,7.259 -2.241,-0.054 -4.746,0.168 -6.698,-1.069 -3.051,-1.934 -5.604,-5.267 -6.302,-8.848 -0.484,-2.479 -0.074,-6.297 1.56,-8.299 3.083,-3.779 6.552,-4.781 11.104,-5.322 z"
       fill="#e08e2e"
       id="path24" />
    <path
       transform="scale(2.8677)"
       d="m 670.53,328.56 c 3.276,-0.04 5.944,0.827 8.747,2.458 3.654,2.125 7.011,5.655 7.922,9.895 1.025,4.769 -0.292,9.179 -2.918,13.199 -2.992,4.579 -7.385,5.81 -12.426,6.901 -2.85,0.066 -5.634,-0.483 -8.181,-1.774 -3.455,-1.751 -7.692,-6.494 -8.818,-10.242 -1.138,-3.788 -0.355,-8.991 1.655,-12.338 2.979,-4.961 8.712,-6.821 14.019,-8.099 z"
       fill="#e08e2e"
       id="path25" />
    <path
       transform="scale(2.8677)"
       d="m 433.07,599.35 c -1.486,-3.014 -3.184,-6.129 -2.26,-9.538 l 0.24,-0.816 c 1.508,-5.537 5.224,-11.881 10.297,-14.832 3.236,-1.882 9.343,-2.33 12.983,-1.012 4.846,1.754 7.625,5.318 9.615,9.858 1.032,4.827 0.422,7.989 -2.275,12.141 -2.793,4.299 -8.207,9.471 -13.336,10.525 -3.83,0.786 -7.767,-0.557 -10.914,-2.727 -1.018,-0.703 -1.867,-1.591 -2.754,-2.446 -0.526,-0.507 -0.948,-0.825 -1.596,-1.153 z"
       fill="#e08e2e"
       id="path26" />
    <path
       transform="scale(2.8677)"
       d="m 582.54,143.96 c 6.044,-0.881 12.484,-0.492 18.59,-0.498 8.93,-0.011 17.965,-0.109 26.866,0.704 20.544,1.877 40.899,6.13 60.811,11.369 13.806,3.633 26.959,7.471 39.87,13.631 3.109,1.484 6.8,2.24 9.599,4.232 l 0.842,0.717 c -4.304,-0.105 -8.59,-1.311 -12.839,-1.965 -4.428,-0.682 -8.89,-0.795 -13.248,-1.923 L 663.496,159.29 c -2.98,-0.645 -6.143,-0.48 -9.054,-1.233 -6.842,-1.773 -14.175,-1.279 -20.946,-2.784 -1.643,-0.365 -3.143,-0.239 -4.75,-0.517 -3.333,-0.576 -6.612,-0.256 -10,-0.48 -1.581,-0.104 -2.565,-0.461 -4.208,-0.185 l -0.238,0.785 -0.426,-0.875 0.372,-0.5 h 4.5 c 1.419,0.427 0.331,0.359 1.48,0.439 1.509,0.104 1.627,0.186 2.773,-0.814 l 1.247,0.13 c -0.739,-0.779 -1.182,-1.224 -2.297,-1.414 l -0.703,-0.096 -0.372,-0.745 -0.375,-0.625 0.247,-0.375 c -0.709,-1.075 -0.492,-1.749 -0.5,-3 -0.503,-0.594 -0.761,-0.9 -0.918,-1.689 l -0.077,-0.561 c -3.486,0.059 -6.577,-0.577 -10.005,-0.505 l -0.5,0.5 -16.973,0.045 c -2.978,-0.004 -6.505,0.474 -9.233,-0.831 z"
       fill="#fde7a7"
       id="path27" />
    <path
       transform="scale(2.8677)"
       d="m 407.69,177.36 c 6.027,8.383 14.577,17.752 16.264,28.404 0.482,3.044 0.463,6.207 0.792,9.276 0.488,4.545 1.112,8.709 0.361,13.29 l -0.537,2.675 c -0.678,3.171 -1.221,6.411 -2.317,9.474 -3.701,10.343 -11.642,20.359 -20.76,26.458 -11.315,7.567 -27.669,11.083 -41.04,8.254 -11.565,-2.446 -20.999,-7.219 -27.581,-17.563 -0.76,-1.193 -0.599,-1.313 -0.273,-2.634 l 2.694,1.998 c 11.321,7.767 26.681,10.838 40.131,8.193 15.281,-3.005 27.867,-11.988 36.481,-24.844 5.949,-8.879 8.278,-18.305 8.11,-28.877 -0.041,-2.572 0.074,-5.449 -0.505,-7.954 -2.179,-9.431 -7.488,-19.728 -15.777,-25.123 z"
       fill="#e08e2e"
       id="path28" />
    <path
       transform="scale(2.8677)"
       d="m 385.08,392.42 0.727,6.648 c 0.602,5.869 -0.597,11.49 -1.755,17.185 -0.795,3.913 -1.255,7.78 -2.295,11.662 -1.835,4.295 -3.401,8.991 -5.794,13.009 -3.463,5.815 -8.812,11.141 -14.207,15.129 -13.206,9.764 -30.251,15.12 -46.76,12.573 -7.684,-1.186 -15.755,-3.939 -22.372,-8.002 -2.049,-1.258 -4.427,-2.677 -5.871,-4.625 l -8.839,-7.221 c -4.044,-4.97 -7.268,-9.222 -10.459,-14.775 -1.937,-3.371 -3.458,-5.612 -4.112,-9.552 l 5.732,8.117 c 3.61,4.548 7.432,8.852 12.053,12.419 8.629,6.662 21.635,11.446 32.424,12.595 13.778,1.467 28.781,-1.496 40.747,-8.533 3.474,-2.042 6.659,-4.687 9.791,-7.208 8.856,-7.129 18.169,-22.3 19.425,-33.74 1.035,-5.247 1.462,-10.334 1.565,-15.681 z"
       fill="#e08e2e"
       id="path29" />
    <path
       transform="scale(2.8677)"
       d="m 221.49,333.34 c 1.391,-2.895 1.78,-5.881 3.704,-8.587 3.644,-5.125 12.839,-9.228 19.133,-10.035 6.008,-0.77 13.371,1.854 18.125,5.483 4.2,3.205 6.955,6.481 7.632,11.78 -1.05,7.674 -3.099,14.184 -9.43,19.084 -2.446,1.893 -5.005,3.348 -7.905,4.437 L 252,355.788 c -5.32,1.9 -12.325,0.416 -17.185,-2.088 -4.88,-2.515 -10.931,-6.657 -12.521,-12.188 -0.743,-2.583 -0.413,-5.52 -0.804,-8.172 z"
       fill="url(#f)"
       id="path30"
       style="fill:url(#f)" />
    <path
       transform="scale(2.8677)"
       d="m 413.83,489.53 -1.122,0.717 c -0.392,1.812 -0.932,3.78 -0.687,5.642 0.218,1.652 0.933,3.185 1.184,4.847 -1.792,-2.49 -3.788,-4.978 -5.245,-7.674 -5.541,-10.257 -7.858,-23.71 -5.918,-35.2 1.617,-9.575 6.066,-19.733 14.129,-25.554 3.018,-2.179 8.248,-4.871 11.889,-5.699 2.218,-0.504 5.053,-0.218 7.335,-0.234 7.509,-0.052 15.412,0.049 22.832,1.351 13.678,2.401 26.367,10.329 34.255,21.764 5.365,7.778 6.907,23.424 4.953,32.619 l -0.182,0.79 c -2.962,13.472 -11.168,21.85 -22.287,29.354 -1.729,1.166 -4.043,1.726 -6,2.438 -8.326,3.03 -17.729,4.077 -26.468,2.169 -3.957,-0.863 -7.077,-2.509 -10.483,-4.633 -1.428,-0.892 -2.204,-1.537 -3.066,-2.985 6.038,2.1 11.921,3.545 18.349,2.501 l 0.705,-0.124 c 11.368,-1.927 18.948,-6.474 26.374,-15.378 6.864,-8.231 9.26,-18.704 8.08,-29.236 -0.709,-6.332 -6.249,-13.147 -11.252,-16.853 -2.167,-1.605 -4.76,-2.725 -7.208,-3.834 -2.356,-1.067 -4.792,-2.408 -7.294,-3.074 -5.065,-1.347 -11.399,-0.768 -16.517,0.07 l -0.683,0.117 c -5.152,0.842 -8.904,2.392 -13.078,5.49 -8.167,6.06 -11.378,14.227 -12.672,24.065 -0.617,4.692 -1.374,12.024 0.077,16.544 z"
       fill="#e9a33f"
       id="path31" />
    <path
       transform="scale(2.8677)"
       d="m 766.29,190.08 0.546,-1.925 c 3.057,3.357 6.441,6.01 9.79,9.036 l 13.126,12.08 15.479,15.516 c 3.642,3.698 7.681,7.257 10.797,11.41 3.437,4.582 7.62,8.555 11.208,13.023 12.314,15.336 23.129,31.796 27.595,51.131 0.844,3.653 1.827,7.329 2.004,11.087 -8.497,-5.973 -17.403,-8.32 -27.39,-10.651 0.114,-1.406 0.22,-2.525 -0.409,-3.842 -3.572,-7.484 -6.91,-14.995 -11.005,-22.224 -4,-7.061 -8.59,-13.584 -13.131,-20.283 -7.841,-11.569 -15.817,-23.063 -24.891,-33.739 -3.039,2.984 -5.509,6.44 -8.367,9.579 -4.373,4.802 -9.936,9.735 -15.717,12.752 -4.124,2.152 -9.029,4.485 -13.463,5.813 -9.604,2.877 -24.938,3.069 -34.382,-0.047 -2.643,-0.872 -5.298,-1.699 -7.79,-2.958 -2.159,-1.091 -7.737,-3.665 -9.038,-5.581 -0.385,-0.567 -0.623,-1.872 -0.853,-2.563 8.451,5.05 18.415,7.855 28.368,6.933 16.011,-1.485 28.874,-10.223 38.971,-22.39 2.078,-2.505 3.424,-5.526 4.678,-8.502 3.493,-8.282 4.629,-14.62 3.874,-23.655 z"
       fill="#d27617"
       id="path32" />
    <path
       transform="scale(2.8677)"
       d="m 631.65,452.6 c -5.568,-3.981 -11.313,-8.547 -14.971,-14.446 -3.736,-6.024 -4.819,-13.226 -2.886,-20.072 1.881,-6.662 7.312,-12.436 12.631,-16.619 5.818,-4.574 16.578,-6.164 23.756,-5.138 11.135,1.592 22.005,7.783 28.748,16.859 5.625,7.573 10.84,18.624 9.385,28.296 -0.915,6.09 -5.011,10.649 -9.891,14.031 -3.86,2.675 -7.744,3.871 -12.307,4.775 -10.132,1.016 -18.909,-0.814 -28.284,-4.546 z"
       fill="url(#e)"
       id="path33"
       style="fill:url(#e)" />
    <path
       transform="scale(2.8677)"
       d="m 413.83,489.53 c -1.451,-4.52 -0.694,-11.852 -0.077,-16.544 1.294,-9.838 4.505,-18.005 12.672,-24.065 4.174,-3.098 7.926,-4.648 13.078,-5.49 l 0.683,-0.117 c 5.118,-0.838 11.452,-1.417 16.517,-0.07 2.502,0.666 4.938,2.007 7.294,3.074 2.448,1.109 5.041,2.229 7.208,3.834 5.003,3.706 10.543,10.521 11.252,16.853 1.18,10.532 -1.216,21.005 -8.08,29.236 -7.426,8.904 -15.006,13.451 -26.374,15.378 l -0.705,0.124 c -6.428,1.044 -12.311,-0.401 -18.349,-2.501 -6.119,-4.314 -11.599,-13.18 -15.119,-19.712 z"
       fill="#e08e2e"
       id="path34" />
    <path
       transform="scale(2.8677)"
       d="m 140.14,512.3 c 1.392,-1.046 3.11,-2.528 4.78,-3.043 4.472,-1.379 12.69,-1.167 17.435,-0.522 15.75,2.143 31.59,11.898 40.978,24.763 11.788,16.155 16.45,37.795 13.804,57.55 -3.906,-0.989 -8.034,-0.874 -11.97,-2.08 -2.508,-0.769 -4.524,-2.317 -6.921,-3.313 -7.144,-2.971 -14.035,-6.01 -20.513,-10.309 -3.339,-2.216 -6.302,-5.295 -9.211,-8.044 -5.888,-5.566 -11.293,-11.144 -16.226,-17.593 -2.113,-2.763 -4.199,-5.577 -5.943,-8.594 -1.546,-2.675 -2.676,-5.486 -5.09,-7.52 l -0.355,-0.287 -0.515,-16.28 c 0.154,-1.635 -0.035,-3.106 -0.253,-4.728 z"
       fill="#3c1004"
       id="path35" />
    <path
       transform="scale(2.8677)"
       d="m 176.9,525.25 c 0.612,0.044 0.672,0.02 1.353,0.238 2.046,0.656 4.108,2.366 5.778,3.717 7.01,5.67 11.426,13.04 14.983,21.228 1.997,4.597 4.916,12.881 2.979,17.817 l -0.562,0.606 -0.604,-0.175 c -4.532,-8.941 -7.926,-18.314 -12.857,-27.072 -2.019,-3.586 -4.465,-6.833 -6.933,-10.116 -1.498,-1.993 -3.223,-3.904 -4.137,-6.243 z"
       fill="url(#d)"
       id="path36"
       style="fill:url(#d)" />
    <path
       transform="scale(2.8677)"
       d="m 579.37,216.84 0.412,-0.636 1.215,1.044 0.75,0.005 1.625,1.87 c 1.184,0.738 1.919,1.831 3,2.5 3.203,1.983 4.529,4.663 7.125,7.125 l 0.255,-0.5 0.5,-1.25 0.62,-0.625 -0.12,-0.875 0.62,-0.625 C 594.925,224.273 595,224.581 595,224 l 0.872,-0.127 c -0.447,-0.6 -0.372,-0.292 -0.372,-0.873 l 0.997,-0.125 c 0.388,-1.333 0.712,-2.518 1.533,-3.649 l 0.47,-0.603 c 0.416,-0.709 0.705,-1.214 1.247,-1.87 l 0.25,0.495 c 0.408,-0.048 0.871,-0.078 1.25,-0.25 1.999,-0.909 2.438,-3.508 3,-5.5 0.265,-0.94 0.653,-1.603 1,-2.5 0.313,-0.808 0.363,-1.381 0.797,-2.188 1.349,-2.505 2.397,-5.248 3.976,-7.617 l 0.977,-1.445 c 0.923,-1.437 2.301,-2.708 3.125,-4.125 0.865,-1.487 -0.206,-0.326 1.023,-1.555 l 0.602,-0.57 0.005,-0.75 1.87,-1.625 c 0.886,-1.42 -0.113,-0.412 0.782,-1.322 0.91,-0.926 1.829,-1.733 2.593,-2.803 0.936,-1.31 2.407,-2.891 3.875,-3.625 1.061,-0.531 1.174,-0.676 1.875,-1.62 l -0.5,-0.755 c -0.391,-0.563 -0.439,-0.936 -0.75,-1.5 -0.917,-1.666 -2.75,-3.848 -2.75,-5.745 0.582,0.802 1.005,1.593 1.5,2.448 0.819,1.416 1.504,2.945 2.458,4.271 0.72,1.002 0.543,1.095 0.547,2.276 -0.707,0.277 -1.19,0.435 -1.711,1.018 l -0.3,0.388 c -11.108,10.324 -22.725,26.805 -23.231,42.516 -0.095,2.959 0.002,5.538 0.841,8.389 l 0.237,0.834 0.159,0.496 0.804,0.26 c 2.151,-2.211 2.081,-8.203 2.92,-11.257 l 4.104,-12.872 c 0.234,0.412 0.58,0.778 0.702,1.236 0.436,1.628 -0.326,4.918 -0.328,6.742 -0.006,3.508 0.536,7.135 1.029,10.598 0.646,4.536 1.82,8.887 4.082,12.9 1.295,2.296 2.983,4.371 4.24,6.689 1.587,2.926 2.623,6.241 3.687,9.391 3.309,9.792 4.35,17.483 1.173,27.423 -0.951,2.974 -1.845,7.271 -3.75,9.749 -3.839,4.996 -9.366,8.957 -15.073,11.455 l -2.306,0.829 c -1.274,0.432 -2.392,0.9 -3.723,1.167 -1.391,0.28 -0.275,0.016 -1.371,0.388 -1.28,0.433 -2.638,0.062 -3.94,0.449 -1.723,0.511 -3.638,1.999 -5.299,2.84 -4.418,2.237 -9.095,4.532 -13.763,6.19 -5.594,1.987 -11.706,2.24 -16.916,5.31 -3.861,2.274 -7.342,6.219 -9.385,10.196 l -0.72,1.676 -0.248,0.593 c -1.669,4.263 -0.415,11.887 1.372,15.942 1.401,3.177 4.506,5.794 6.888,8.255 -4.173,-0.15 -8.806,-0.786 -12.929,-0.507 -3.191,0.215 -6.46,1.432 -9.528,2.297 -4.212,1.188 -9.388,2.094 -12.722,5.132 -5.947,5.418 -11.106,10.875 -13.351,18.788 l -0.18,0.611 c -1.73,6.235 1.984,12.574 1.74,18.779 -0.142,3.622 -1.758,7.249 -2.712,10.722 3.967,1.88 7.622,2.803 11.936,3.531 -4.031,1.612 -8.197,3.597 -12.433,4.564 -7.852,1.791 -15.708,0.553 -23.5,-0.791 l -0.252,0.669 c -3.669,-0.412 -7.392,-1.598 -11.021,-2.362 -3.923,-0.826 -9.508,-1.446 -12.999,-3.424 -16.926,-2.816 -34.108,0.814 -50.76,3.477 -7.044,1.127 -14.919,2.017 -21.738,4.118 -1.662,0.85 -3.387,1.427 -5.224,1.768 1.04,-3.882 1.5,-7.749 2.295,-11.662 1.158,-5.695 2.357,-11.316 1.755,-17.185 l -0.727,-6.648 c -1.034,-10.912 -4.733,-22.228 -11.195,-31.194 -3.573,-4.957 -8.029,-9.337 -12.503,-13.476 0.003,-0.325 0.08,-0.646 0.131,-0.968 l 0.988,0.971 c 2.421,1.281 5,4.216 6.998,6.252 l 0.002,0.748 2.998,2.752 0.002,0.748 c 1.042,0.702 1.248,1.323 2,2.25 0.546,0.673 0.751,0.864 1.139,1.703 l 0.361,0.797 1.6,2.448 0.398,0.554 0.002,0.748 0.998,1.252 1,2 c 0.433,0.955 1.264,2.132 1.5,3.123 0.238,1.002 0.126,1.536 0.898,2.313 l 0.349,0.312 -0.245,0.75 c 0.664,0.671 0.568,0.858 0.745,1.75 l 0.5,0.5 -0.245,1.5 0.622,0.75 c -0.038,0.789 -0.077,1.28 0.252,2.023 l 0.249,0.477 -0.123,0.75 c 0.846,1.019 0.656,1.23 0.745,2.5 l 0.5,0.5 c -0.102,0.762 -0.123,1.381 -0.069,2.156 l 0.069,0.844 0.005,0.75 c 0.625,0.839 0.394,1.825 0.311,2.844 l -0.061,0.656 c 0.921,1.382 1.027,12.379 0.5,14.25 -0.345,1.226 -0.288,2.485 -0.625,3.625 -0.262,0.886 -0.755,1.41 -0.801,2.375 -0.042,0.882 0.056,1.696 -0.26,2.538 -0.265,0.705 -0.13,1.282 -0.314,1.962 -0.407,1.505 -0.365,0.306 -0.421,1.381 -0.047,0.895 0.009,1.513 -0.337,2.377 l -0.242,0.492 0.375,0.252 1.875,-1.752 c 1.106,-0.836 0.407,-0.144 1.174,-0.906 l 0.331,-0.344 c 0.783,-0.116 1.261,-0.25 1.979,-0.609 0.759,-0.38 1.444,-0.67 2.266,-0.891 1.153,-0.31 2.091,-0.901 3.227,-1.211 0.846,-0.231 1.58,-0.682 2.398,-0.914 0.807,-0.229 1.818,0.104 2.625,-0.125 1.243,-0.352 2.308,-0.818 3.632,-0.32 l 0.366,0.195 1.252,-0.375 c 0.836,-0.319 1.535,-0.723 2.423,-0.902 0.466,-0.094 1.151,-0.119 1.577,-0.343 1.084,-0.569 1.026,-0.5 2.25,-0.5 0.784,-0.784 1.183,-0.5 2.25,-0.5 1.101,-0.734 1.959,-0.5 3.25,-0.5 0.762,-0.762 3.7,-0.474 5,-0.755 2.303,-0.498 4.653,0 7,-0.245 1.92,-1.92 12.317,0.376 15.25,0.122 1.027,-0.088 1.334,-0.237 2.344,0.182 l 0.656,0.318 c 0.994,-0.162 0.565,-0.196 1.617,0.105 l 4.633,1.273 1.25,0.495 0.75,0.005 c 0.939,0.226 1.289,0.675 2.398,0.699 l 1.102,0.046 c 0.925,0.274 1.624,0.273 2.5,0.5 1.699,0.44 0.147,0.357 1.491,0.43 0.919,0.05 1.805,0.005 2.715,0.187 l 0.544,0.133 c 0.843,0.177 1.306,0.274 2.125,0.625 0.457,1.066 0.376,0.558 0.373,1.5 -1.092,0.033 -1.913,-0.076 -2.873,0.5 l 1.373,0.25 c 1.643,0.579 -0.035,0.232 1.346,0.508 l 8.156,1.617 1.25,0.25 c 1.45,0.499 0.276,0.355 1.867,0.461 l 0.883,0.039 0.75,0.5 c 1.186,-0.508 2.397,-0.655 3.68,-0.398 l 0.57,0.148 1.25,0.25 c 1.361,0.468 2.314,0.466 3.75,0.5 1.331,0.887 11.477,1.012 13.25,0.5 1.779,-0.514 0.009,-0.318 1.664,-0.445 1.878,-0.145 3.304,-0.802 5.086,-1.305 2.026,-0.572 3.852,-1.633 5.844,-2.297 l 0.656,-0.203 -4.742,-1.242 -0.758,-0.258 c -1.498,-0.44 -2.619,-0.911 -3.875,-1.875 -0.128,-1.607 -0.148,-2.571 0.367,-4.117 0.624,-1.873 1.027,-3.651 1.508,-5.508 0.445,-1.718 0.328,-0.185 0.452,-1.395 l 0.032,-0.543 c 0.015,-0.219 0.081,-0.835 0.016,-1.062 -0.293,-1.029 -0.219,-2.081 -0.5,-3 -0.287,-0.94 -0.269,-1.611 -0.5,-2.5 -0.252,-0.973 -0.234,-2.128 -0.5,-3 -0.385,-1.26 -0.176,-2.354 -0.5,-3.5 -0.235,-0.828 -0.699,-1.564 -0.5,-2.5 0.185,-0.868 0.364,-2.305 0.625,-3.125 0.568,-1.783 1.879,-4.41 2.125,-6.125 l 0.005,-0.75 c 0.857,-0.575 0.944,-0.718 1.37,-1.625 0.405,-0.861 0.534,-1.183 1.267,-1.844 l 0.608,-0.531 c 1.314,-1.708 2.383,-2.993 4,-4.5 l -1.5,-1.5 c -1.156,-0.008 -1.552,-0.744 -2.375,-1.502 l -1.125,1.252 c -0.485,0.638 -0.584,0.988 -1.227,1.561 l -0.523,0.439 c -0.007,1.092 -0.264,1.009 -1,1.745 -0.924,-0.089 -1.188,-0.169 -1.93,-0.776 -0.898,-0.735 -1.873,-1.15 -2.733,-1.922 -0.829,-0.745 -0.34,-0.406 -1.337,-1.047 l -6.875,-4.875 c -0.982,-0.709 -1.76,-1.778 -2.984,-2.023 -0.96,-0.192 -0.335,0.012 -1.313,-0.283 -1.025,-0.31 -1.27,-0.757 -1.703,-1.694 -0.845,-1.827 -2.453,-2.439 -3.5,-4 -0.882,-1.315 -2.196,-2.257 -3,-3.5 -0.982,-1.518 0.174,-0.35 -0.782,-1.322 l -2.077,-2.147 -0.516,-0.656 -1.125,-1.375 c -0.682,-1.173 -0.034,-0.565 -0.713,-1.245 l -1.162,-1.13 c -0.622,-0.86 -0.643,-1.173 -1.524,-1.909 -0.87,-0.728 -0.649,-0.355 -1.099,-1.341 -0.477,-1.046 -1.134,-1.771 -1.946,-2.587 l -0.429,-0.415 -0.002,-0.748 c -0.692,-0.491 -0.866,-0.685 -1.203,-1.494 -0.383,-0.916 -0.129,-0.535 -0.594,-1.186 l -0.328,-0.445 c -0.443,-0.74 -0.661,-1.433 -1.281,-2.058 -1.402,-1.41 -2.248,-4.761 -3.344,-6.567 l -0.373,-0.5 c -0.218,-1.711 -0.906,-3.738 -1.502,-5.375 -0.417,-1.145 -0.494,-2.266 -0.875,-3.375 -0.382,-1.112 -0.297,-2.096 -0.625,-3.125 -0.492,-1.545 -0.319,-0.239 -0.444,-1.516 l -0.054,-0.609 -0.252,-0.625 -0.125,-1.625 c -0.398,-1.407 -0.159,-2.683 -0.5,-4 -0.361,-1.396 -0.568,-1.94 -0.384,-3.429 l 0.131,-1.007 0.291,-11.479 c 0.349,3.48 0.599,6.988 1.29,10.415 2.95,14.632 7.787,28.362 17.555,39.876 2.316,2.73 4.663,5.552 7.586,7.658 3.29,2.371 6.186,2.346 10.031,2.715 9.805,0.94 19.53,0.42 29.347,-0.058 0.122,-0.673 1.209,-1.66 1.672,-2.215 3.214,-3.067 5.588,-7.687 7.952,-11.465 3.066,-4.902 6.654,-10.907 10.721,-15.011 5.665,-5.716 15.072,-9.074 22.495,-11.616 1.711,-2.407 4.298,-5.438 6.927,-6.807 2.226,-1.159 4.78,-1.284 7.233,-1.555 8.26,-0.912 14.482,-1.218 20.991,-7.214 5.686,-5.238 9.394,-11.565 9.752,-19.338 l -0.096,-1.97 c -0.624,-6.494 -3.081,-12.71 -5.852,-18.547 -7.141,-15.042 -16.852,-27.352 -29.769,-37.861 z"
       fill="#fde7a7"
       id="path37" />
    <path
       transform="scale(2.8677)"
       d="m 529.02,348.23 c -0.159,2.708 -0.685,8.495 -2.808,10.307 -1.246,1.063 -3.373,1.339 -4.94,1.453 3.063,-2.971 4.44,-5.619 6.076,-9.545 0.122,-0.673 1.209,-1.66 1.672,-2.215 z"
       fill="#f9d77b"
       id="path38" />
    <path
       transform="scale(2.8677)"
       d="m 386.98,426.14 -0.198,-0.766 1.216,-1.38 c 2.17,-0.748 4.098,-2.056 6.252,-2.755 1.405,-0.456 2.427,-1.321 3.779,-1.774 l 0.721,-0.224 c 0.748,-0.301 0.95,-0.494 1.812,-0.642 4.07,-0.697 8.131,-2.207 12.161,-3.194 6.241,-1.528 13.2,-1.986 19.62,-2.039 7.409,-0.062 13.656,0.357 20.834,2.381 2.518,0.71 4.368,0.897 6.301,2.798 -16.926,-2.816 -34.108,0.814 -50.76,3.477 -7.044,1.127 -14.919,2.017 -21.738,4.118 z"
       fill="#fffef9"
       id="path39" />
    <path
       transform="scale(2.8677)"
       d="m 615.09,275.22 c 2.109,8.002 3.216,15.42 -1.33,22.968 -2.607,4.327 -7.624,7.306 -12.51,8.344 -4.184,0.889 -8.644,1.463 -12.91,1.72 -2.419,0.146 -4.949,-0.081 -7.34,0.271 -3.807,0.56 -6.871,1.733 -10.813,1.611 1.711,-2.407 4.298,-5.438 6.927,-6.807 2.226,-1.159 4.78,-1.284 7.233,-1.555 8.26,-0.912 14.482,-1.218 20.991,-7.214 5.686,-5.238 9.394,-11.565 9.752,-19.338 z"
       fill="#e08e2e"
       id="path40" />
    <path
       transform="scale(2.8677)"
       d="m 461.54,289.84 c 0.349,3.48 0.599,6.988 1.29,10.415 2.95,14.632 7.787,28.362 17.555,39.876 2.316,2.73 4.663,5.552 7.586,7.658 3.29,2.371 6.186,2.346 10.031,2.715 9.805,0.94 19.53,0.42 29.347,-0.058 -1.636,3.926 -3.013,6.574 -6.076,9.545 -4.731,3.778 -8.36,7.626 -12.118,12.396 l -0.49,-0.12 c -1.862,-0.962 -4.02,-3.116 -5.784,-4.387 -3.646,-2.627 -7.572,-5.194 -10.976,-8.125 -2.99,-2.575 -5.485,-5.734 -8.057,-8.711 -6.565,-7.6 -14.194,-16.862 -17.547,-26.465 -1.638,-4.69 -2.741,-9.387 -3.569,-14.282 -0.453,-2.681 -0.511,-5.647 -1.256,-8.238 l -0.227,-0.74 z"
       fill="#e9a33f"
       id="path41" />
    <path
       transform="scale(2.8677)"
       d="m 713.04,170.23 c 4.358,1.128 8.82,1.241 13.248,1.923 4.249,0.654 8.535,1.86 12.839,1.965 l 27.422,7.097 c -1.365,2.375 -0.962,5.922 -0.375,8.559 l 0.119,0.308 c 0.755,9.035 -0.381,15.373 -3.874,23.655 -1.254,2.976 -2.6,5.997 -4.678,8.502 -10.097,12.167 -22.96,20.905 -38.971,22.39 -9.953,0.922 -19.917,-1.883 -28.368,-6.933 -6.75,-4.542 -11.619,-10.38 -15.647,-17.371 0.314,-5.607 2.398,-11.986 4.23,-17.307 3.627,-10.537 10.793,-19.995 20.267,-25.97 4.246,-2.679 9.276,-4.606 13.788,-6.818 z"
       fill="url(#c)"
       id="path42"
       style="fill:url(#c)" />
    <path
       transform="scale(2.8677)"
       d="m 166.51,437.88 c 5.737,-4.304 11.464,-8.959 18.49,-10.907 l 7,-1.537 0.819,-0.127 c 4.858,-0.688 10.493,-0.509 15.291,0.485 5.975,1.238 11.856,3.271 17.316,6.014 l 9.628,5.392 c 0.613,0.312 2.347,1.35 2.851,1.082 4.127,2.171 8.183,5.769 10.42,9.926 1.683,3.128 3.027,6.06 3.762,9.564 l 0.19,0.944 c 1.552,7.362 1.022,14.485 -1.925,21.44 l -0.365,0.817 c -1.21,2.885 -3.995,5.068 -6.622,6.657 -7.523,4.551 -16.973,5.9 -25.615,6.273 -2.606,0.112 -5.462,0.395 -8.054,0.106 -1.862,-0.207 -3.607,-1.032 -5.477,-1.256 -5.393,-0.645 -10.612,-1.379 -15.908,-2.664 -2.616,-0.635 -5.076,-1.815 -7.717,-2.442 L 175,486.405 c -3.338,-0.568 -6.864,-0.348 -10.243,-0.334 -3.033,0.012 -6.239,-0.151 -9.23,0.418 -2.997,0.57 -6.139,1.998 -9.027,3.025 L 145.506,489 c -0.16,-1.299 -0.538,-2.816 0.249,-4 0.618,-0.929 0.496,-0.823 0.5,-2 0.572,-0.859 0.467,-0.505 0.639,-1.374 l 0.108,-0.624 0.253,-0.752 c 0.187,-0.69 0.266,-1.335 0.497,-2.028 l 0.503,-1.472 c 0.187,-0.69 0.266,-1.335 0.497,-2.028 0.357,-1.07 0.515,-2.79 1.003,-3.722 0.681,-1.299 0.405,-0.16 0.627,-1.497 l 0.118,-0.753 0.377,-0.75 0.125,-0.998 0.253,-0.752 1.247,-4.248 0.253,-1.002 c 0.655,-1.265 0.398,-0.218 0.621,-1.324 0.188,-0.932 0.041,-0.449 0.361,-1.408 l 0.765,-2.266 c 0.607,-1.879 1.485,-4.002 2.377,-5.782 l 1.123,-2.218 c 0.555,-1.355 1.399,-2.654 2.425,-3.725 l 3.907,-4.378 z"
       fill="#e9a33f"
       id="path43" />
    <path
       transform="scale(2.8677)"
       d="m 270.76,354.53 c 2.409,-3.379 6.623,-6.721 9.891,-9.272 13.405,-10.467 30.694,-14.174 47.346,-12.275 12.361,1.409 23.546,7.479 33.381,14.762 4.474,4.139 8.93,8.519 12.503,13.476 6.462,8.966 10.161,20.282 11.195,31.194 -0.103,5.347 -0.53,10.434 -1.565,15.681 l -0.629,-3.098 c -1.002,-1.041 -1.426,-1.125 -2.885,-0.985 -2.558,0.247 -5.005,1.04 -7.588,1.263 -6.645,0.573 -13.762,1.245 -20.412,0.818 -14.967,-0.961 -30.798,-5.663 -43.797,-13.112 -3.491,-2 -6.807,-4.595 -10.073,-6.944 -9.501,-6.833 -22.544,-16.83 -25.74,-28.609 -0.244,-0.898 -0.448,-1.474 -1.042,-2.213 z"
       fill="#3c1004"
       id="path44" />
    <path
       transform="scale(2.8677)"
       d="m 314.36,345.22 c 8.419,-0.622 16.205,2.164 23.883,5.176 -10.251,0.04 -20.048,0.759 -29.852,4.067 -5.029,1.974 -10.015,5.985 -15.636,4.53 -1.061,-0.854 -1.877,-1.564 -2.176,-2.991 -0.295,-1.41 0.245,-2.62 1.103,-3.678 4.383,-5.408 16.226,-6.538 22.678,-7.104 z"
       fill="#fffef9"
       id="path45" />
    <path
       transform="scale(2.8677)"
       d="m 403.74,178.38 c 8.289,5.395 13.598,15.692 15.777,25.123 0.579,2.505 0.464,5.382 0.505,7.954 0.168,10.572 -2.161,19.998 -8.11,28.877 -8.614,12.856 -21.2,21.839 -36.481,24.844 -13.45,2.645 -28.81,-0.426 -40.131,-8.193 l -2.694,-1.998 c -1.364,-1.886 -3.077,-3.476 -4.416,-5.4 -5.362,-7.704 -6.573,-15.503 -7.31,-24.663 0.108,-0.439 0.123,-0.599 0.365,-1.037 1.497,-2.709 7.59,-5.72 10.24,-7.491 22.365,-14.955 46.569,-29.53 72.255,-38.016 z"
       fill="url(#b)"
       id="path46"
       style="fill:url(#b)" />
    <path
       transform="scale(2.8677)"
       d="m 270.76,354.53 0.585,0.686 c 0.594,0.739 0.798,1.315 1.042,2.213 3.196,11.779 16.239,21.776 25.74,28.609 3.266,2.349 6.582,4.944 10.073,6.944 12.999,7.449 28.83,12.151 43.797,13.112 6.65,0.427 13.767,-0.245 20.412,-0.818 2.583,-0.223 5.03,-1.016 7.588,-1.263 1.459,-0.14 1.883,-0.056 2.885,0.985 l 0.629,3.098 c -1.256,11.44 -10.569,26.611 -19.425,33.74 -3.132,2.521 -6.317,5.166 -9.791,7.208 -11.966,7.037 -26.969,10 -40.747,8.533 -10.789,-1.149 -23.795,-5.933 -32.424,-12.595 -4.621,-3.567 -8.443,-7.871 -12.053,-12.419 l -5.732,-8.117 c -0.008,-0.37 -0.724,-1.708 -0.913,-2.142 l -2.833,-6.718 c -1.751,-4.557 -2.675,-9.769 -3.215,-14.612 -1.846,-16.543 4.135,-33.612 14.382,-46.444 z"
       fill="#200302"
       id="path47" />
    <path
       transform="scale(2.8677)"
       d="m 762.3,387.51 c 0.037,-0.342 -0.664,-1.703 -0.798,-2.036 -0.913,-2.267 -1.824,-4.572 -2.497,-6.923 -2.202,-7.69 -3.435,-15.768 -2.342,-23.756 2.324,-16.99 11.522,-32.062 25.12,-42.32 12.435,-9.381 32.446,-14.016 47.663,-11.692 9.987,2.331 18.893,4.678 27.39,10.651 4.109,24.881 4.808,51.424 0.613,76.289 -0.863,5.114 -1.704,11.339 -4.623,15.728 -0.575,0.863 -1.297,1.537 -2.049,2.243 -0.159,1.251 -0.549,1.985 -1.101,3.087 -0.869,1.735 -0.896,2.852 -0.653,4.738 -0.589,1.615 -1.267,3.237 -1.577,4.931 -0.996,-0.53 -1.091,-0.884 -2.231,-0.557 -2.478,0.711 -4.731,2.568 -7.084,3.652 -2.882,1.329 -6.1,2.184 -9.121,3.148 -3.234,1.33 -5.773,2.253 -9.33,1.943 l -0.083,0.116 c -8.23,0.256 -20.057,-0.375 -26.789,-5.584 l -2.291,-1.828 c -2.826,-2.195 -6.007,-3.872 -8.786,-6.089 -7.308,-5.829 -12.363,-12.729 -17.336,-20.503 -1.139,-1.78 -1.639,-3.159 -2.095,-5.238 z"
       fill="url(#a)"
       id="path48"
       style="fill:url(#a)" />
    <path
       transform="scale(2.8677)"
       d="m 843.34,411.49 c 1.36,-3.054 4.592,-4.188 7.438,-5.79 -0.159,1.251 -0.549,1.985 -1.101,3.087 -0.869,1.735 -0.896,2.852 -0.653,4.738 -0.37,-0.749 -0.761,-1.365 -1.27,-2.027 z"
       fill="#ca711d"
       id="path49" />
    <path
       transform="scale(2.8677)"
       d="m 843.34,411.49 4.414,0.008 c 0.509,0.662 0.9,1.278 1.27,2.027 -0.589,1.615 -1.267,3.237 -1.577,4.931 -0.996,-0.53 -1.091,-0.884 -2.231,-0.557 -2.478,0.711 -4.731,2.568 -7.084,3.652 -2.882,1.329 -6.1,2.184 -9.121,3.148 0.396,-2.396 1.667,-5.038 2.328,-7.445 l -0.755,-1.122 z"
       fill="#c46610"
       id="path50" />
    <path
       transform="scale(2.8677)"
       d="m 793.74,319.75 1.505,-0.231 0.609,0.481 c -3.544,5.018 -7.218,9.696 -10.302,15.057 -2.608,4.536 -4.623,9.39 -7.307,13.887 -1.087,-0.686 -1.398,-1.531 -1.779,-2.708 -1.612,-4.977 -0.283,-9.73 2.01,-14.236 3.185,-6.262 8.702,-10.178 15.264,-12.25 z"
       fill="#fffef9"
       id="path51" />
    <path
       transform="scale(2.8677)"
       d="m 762.3,387.51 0.56,0.616 c 3.324,3.683 5.933,7.841 9.107,11.622 7.139,8.504 16.14,13.753 26.624,16.961 10.232,1.912 21.922,2.453 31.992,-0.583 l 0.755,1.122 c -0.661,2.407 -1.932,5.049 -2.328,7.445 -3.234,1.33 -5.773,2.253 -9.33,1.943 l -0.083,0.116 c -8.23,0.256 -20.057,-0.375 -26.789,-5.584 l -2.291,-1.828 c -2.826,-2.195 -6.007,-3.872 -8.786,-6.089 -7.308,-5.829 -12.363,-12.729 -17.336,-20.503 -1.139,-1.78 -1.639,-3.159 -2.095,-5.238 z"
       fill="#ca711d"
       id="path52" />
    <path
       transform="scale(2.8677)"
       d="m 327.35,663.54 c -3.048,-6.443 -5.335,-13.198 -6.321,-20.274 -2.039,-14.644 -0.392,-32.289 8.829,-44.451 6.664,-8.788 19.573,-15.385 30.425,-16.872 l 14.069,-0.936 c 20.252,0.293 39.868,13.493 53.394,27.576 2.516,3.375 5.464,6.404 7.911,9.832 10.142,14.214 17.092,30.007 18.552,47.562 0.423,5.089 0.055,10.121 -0.215,15.206 l -1.214,6.077 c -3.704,10.336 -9.097,18.938 -19.304,23.788 -15.708,7.465 -35.036,5.678 -51.032,-0.018 -7.997,-2.848 -16.628,-6.813 -23.501,-11.833 l -10.984,-8.52 -2.785,-2.409 c -1.036,1.394 -1.955,2.694 -2.709,4.262 -6.557,-1.446 -12.325,-4.17 -18.653,-6.206 l -0.041,-0.377 c -1.47,-4.612 0.231,-9.344 1.325,-13.951 0.704,-2.961 1.038,-5.611 2.254,-8.456 z"
       fill="url(#k)"
       id="path53"
       style="fill:url(#k)" />
    <path
       transform="scale(2.8677)"
       d="m 327.35,663.54 c 4.712,8.894 10.595,17.685 17.824,24.728 -1.036,1.394 -1.955,2.694 -2.709,4.262 -6.557,-1.446 -12.325,-4.17 -18.653,-6.206 l -0.041,-0.377 c -1.47,-4.612 0.231,-9.344 1.325,-13.951 0.704,-2.961 1.038,-5.611 2.254,-8.456 z"
       fill="#e9a33f"
       id="path54" />
    <path
       transform="scale(2.8677)"
       d="m 365.37,594.7 0.427,-0.012 c 12.999,-0.124 28.022,2.642 37.548,12.099 -4.082,-1.579 -7.894,-3.026 -12.267,-3.612 l -0.966,-0.123 c -4.991,-0.674 -11.842,-1.253 -16.78,-0.215 -4.59,0.965 -9.628,3.778 -14.359,3.537 -2.576,-0.132 -4.087,-0.924 -5.724,-2.869 -0.508,-1.613 -0.359,-2.559 0,-4.196 0.885,-1.276 1.705,-2.21 3.115,-2.918 2.77,-1.392 5.972,-1.467 9.006,-1.691 z"
       fill="#fffef9"
       id="path55" />
    <path
       transform="scale(2.8677)"
       d="m 461.54,289.84 c 1.14,-18.634 4.603,-34.114 14.747,-50.069 10.751,-16.911 29.36,-30.828 49.215,-34.925 18.731,-3.866 38.22,1.405 53.873,12.001 12.917,10.509 22.628,22.819 29.769,37.861 2.771,5.837 5.228,12.053 5.852,18.547 l 0.096,1.97 c -0.358,7.773 -4.066,14.1 -9.752,19.338 -6.509,5.996 -12.731,6.302 -20.991,7.214 -2.453,0.271 -5.007,0.396 -7.233,1.555 -2.629,1.369 -5.216,4.4 -6.927,6.807 -7.423,2.542 -16.83,5.9 -22.495,11.616 -4.067,4.104 -7.655,10.109 -10.721,15.011 -2.364,3.778 -4.738,8.398 -7.952,11.465 -0.463,0.555 -1.55,1.542 -1.672,2.215 -9.817,0.478 -19.542,0.998 -29.347,0.058 -3.845,-0.369 -6.741,-0.344 -10.031,-2.715 -2.923,-2.106 -5.27,-4.928 -7.586,-7.658 -9.768,-11.514 -14.605,-25.244 -17.555,-39.876 -0.691,-3.427 -0.941,-6.935 -1.29,-10.415 z"
       fill="url(#j)"
       id="path56"
       style="fill:url(#j)" />
    <path
       transform="scale(2.8677)"
       d="m 533,216.16 2.505,-0.154 c 1.648,0.147 2.236,1.074 3.25,2.204 0.547,3.054 -2.699,4.236 -5.03,5.418 -12.204,6.186 -23.371,13.565 -31.812,24.563 -4.083,5.32 -7.016,10.923 -9.945,16.912 -0.443,0.868 -0.627,1.744 -1.541,2.142 -0.737,-1.123 -1.414,-2.291 -1.715,-3.616 -1.884,-8.3 2.136,-18.873 6.895,-25.595 5.764,-8.14 15.958,-15.935 25.357,-19.243 3.805,-1.339 8.077,-1.925 12.036,-2.631 z"
       fill="#fffef9"
       id="path57" />
    <path
       transform="scale(2.8677)"
       d="m 829.01,424.7 c 3.021,-0.964 6.239,-1.819 9.121,-3.148 2.353,-1.084 4.606,-2.941 7.084,-3.652 1.14,-0.327 1.235,0.027 2.231,0.557 l -7.039,21.782 c -4.165,12.068 -9.174,23.855 -14.44,35.478 -1.927,4.255 -3.197,8.561 -5.608,12.611 -4.868,8.179 -8.448,17.516 -12.922,25.985 -1.881,3.562 -4.212,6.749 -6.216,10.214 -3.754,6.494 -7.248,13.194 -11.502,19.392 -1.524,2.221 -3.365,4.222 -4.87,6.456 -2.21,3.282 -3.87,6.901 -6.181,10.121 -15.418,21.48 -33.628,39.374 -52.276,57.911 -11.764,11.695 -23.29,23.092 -36.236,33.543 -7.278,5.875 -14.917,10.996 -22.6,16.306 -7.049,4.872 -14.127,9.998 -21.485,14.383 -1.991,1.187 -4.321,1.686 -6.301,2.895 -1.605,0.979 -2.934,2.338 -4.517,3.327 -3.14,1.962 -6.951,3.121 -10.234,4.894 -2.997,1.619 -5.737,3.709 -8.735,5.281 -2.971,1.557 -6.175,2.775 -9.209,4.219 l -19.177,9.03 -20.645,7.479 c -10.838,3.785 -21.724,7.448 -32.839,10.344 -18.781,4.894 -37.937,9.637 -57.161,12.361 -16.015,2.269 -32.306,3.068 -48.466,3.184 l -12.788,0.345 c -34.585,-0.591 -68.714,-6.72 -101.5,-17.549 -14.521,-4.797 -28.364,-10.414 -42,-17.332 -2.993,-1.519 -6.129,-2.737 -9.025,-4.451 -18.243,-10.793 -35.579,-23.443 -50.785,-38.265 -4.427,-4.316 -8.365,-9.094 -12.519,-13.661 -4.929,-5.421 -10.92,-11.652 -14.577,-18.021 12.821,-5.638 22.254,-18.976 28.331,-31.06 7.771,15.033 22.622,28.496 35.669,39.018 4.192,3.38 8.881,6.329 12.801,10.009 2.883,2.707 6.778,4.091 10.171,6.077 8.205,4.803 16.104,10.202 24.555,14.59 3.874,2.011 8.017,3.443 12.001,5.217 4.836,2.153 9.549,4.411 14.694,5.763 6.328,2.036 12.096,4.76 18.653,6.206 0.754,-1.568 1.673,-2.868 2.709,-4.262 l 2.785,2.409 10.984,8.52 c 6.873,5.02 15.504,8.985 23.501,11.833 15.996,5.696 35.324,7.483 51.032,0.018 10.207,-4.85 15.6,-13.452 19.304,-23.788 l 1.214,-6.077 c 0.27,-5.085 0.638,-10.117 0.215,-15.206 -1.46,-17.555 -8.41,-33.348 -18.552,-47.562 -2.447,-3.428 -5.395,-6.457 -7.911,-9.832 0.136,-0.91 -0.028,-0.852 -0.5,-1.587 l -0.005,-0.75 -2.495,-2.25 0.5,-0.255 c 0.748,-0.676 2.661,-2.944 3.071,-3.866 l 0.177,-0.504 1,-2 c 0.576,-1.105 0.451,-0.531 0.655,-1.556 l 0.092,-0.569 c 0.574,0.852 0.482,0.524 0.662,1.422 l 0.093,0.578 c 0.707,0.707 0.554,0.416 0.914,1.225 l 0.211,0.522 0.944,0.357 c 0.648,0.328 1.07,0.646 1.596,1.153 0.887,0.855 1.736,1.743 2.754,2.446 3.147,2.17 7.084,3.513 10.914,2.727 5.129,-1.054 10.543,-6.226 13.336,-10.525 2.697,-4.152 3.307,-7.314 2.275,-12.141 8.365,-3.846 16.548,-7.958 25.233,-11.044 11.633,-4.133 23.988,-6.452 35.823,-9.861 7.007,-2.019 13.725,-5.351 20.892,-6.649 0.717,-15.546 5.534,-30.524 14.853,-43.069 12.34,-16.612 29.769,-26.423 50.005,-29.55 11.46,-1.771 25.311,0.433 36.116,4.42 13.166,4.859 26.42,13.807 35.256,24.734 5.951,7.36 10.162,15.479 14.138,24.016 l 0.864,-0.713 c 0.699,-3.202 5.195,-7.043 7.616,-9.186 0.677,-0.598 2.545,-1.954 2.703,-2.862 0.235,-1.352 -0.977,-1.724 -0.193,-3.331 l 4.215,-0.174 c -3.936,-3.87 -6.418,-9.481 -8.058,-14.682 -2.078,-6.59 -1.271,-15.723 1.908,-21.846 3.974,-7.652 9.645,-19.017 18.532,-21.661 l 0.653,-0.185 c 2.574,-0.753 5.011,-0.933 7.669,-1.101 l 1.328,0.732 c -0.132,1.117 0.025,0.614 -0.415,1.526 1.408,0.414 2.796,0.79 4.124,1.426 l 8.736,-0.529 3.406,0.004 2.27,0.087 c 15.214,0.213 31.244,-4.127 44.382,-11.562 4.368,-2.472 8.44,-4.849 12.044,-8.407 4.062,-4.012 7.964,-8.339 11.518,-12.803 0.995,-1.249 2.188,-2.181 2.188,-3.805 l -2.156,-0.185 0.083,-0.116 c 3.557,0.31 6.096,-0.613 9.33,-1.943 z"
       fill="#d27617"
       id="path58" />
    <path
       transform="scale(2.8677)"
       d="m 345.18,688.27 2.785,2.409 0.12,0.431 c 0.59,1.947 1.615,3.139 2.945,4.638 l -0.403,0.322 -2.375,-2.572 -0.5,1.218 -0.531,-0.487 c -1.418,-1.193 -2.991,-1.384 -4.75,-1.697 0.754,-1.568 1.673,-2.868 2.709,-4.262 z"
       fill="#e08e2e"
       id="path59" />
    <path
       transform="scale(2.8677)"
       d="m 452.78,687.26 0.878,-0.52 0.593,-2.494 c 0.198,1.213 -0.013,2.508 -0.005,3.75 l -0.495,0.5 c -0.002,2.186 0.483,6.198 -0.5,8 -0.256,0.47 -0.339,0.998 -0.5,1.5 -0.26,0.814 -0.598,1.265 -1,2 l -1,2 -0.205,0.695 c -0.489,1.452 -1.63,2.566 -2.279,4.021 -2.667,5.979 -8.349,11.433 -14.466,13.631 -16.989,6.103 -36.583,3.511 -52.598,-4.227 -2.623,-1.267 -4.745,-3.122 -6.918,-5.01 -2.339,-2.032 -5.691,-2.282 -8.198,-3.86 -2.125,-1.338 -3.92,-3.724 -6.093,-5.247 l -1.051,-2.802 c 6.873,5.02 15.504,8.985 23.501,11.833 15.996,5.696 35.324,7.483 51.032,0.018 10.207,-4.85 15.6,-13.452 19.304,-23.788 z"
       fill="#c46610"
       id="path60" />
    <path
       transform="scale(2.8677)"
       d="m 711.46,519.74 c -3.936,-3.87 -6.418,-9.481 -8.058,-14.682 -2.078,-6.59 -1.271,-15.723 1.908,-21.846 3.974,-7.652 9.645,-19.017 18.532,-21.661 l 0.653,-0.185 c 2.574,-0.753 5.011,-0.933 7.669,-1.101 l 1.328,0.732 c -0.132,1.117 0.025,0.614 -0.415,1.526 1.408,0.414 2.796,0.79 4.124,1.426 l 8.736,-0.529 c -1.313,3.854 -3.047,7.776 -3.752,11.792 -1.009,5.745 -0.957,11.659 -1.967,17.441 -0.393,2.252 -0.704,4.75 -1.838,6.759 -2.146,3.802 -5.692,6.37 -8.261,9.833 -4.036,5.44 -4.031,10.247 -5.488,16.536 -1.149,4.961 -2.706,9.635 -3.011,14.783 -0.201,3.386 0.402,6.94 0.542,10.34 -1.906,-1.881 -2.728,-3.222 -5.417,-3.806 -4.464,1.347 -7.558,5.125 -9.628,9.169 -1.466,2.864 -1.972,5.894 -2.329,9.053 -0.099,0.878 -0.292,1.645 -0.543,2.488 l -0.578,-0.063 -0.072,-0.778 c -0.212,-1.926 -0.725,-3.041 -1.698,-4.673 -0.532,-9.398 -2.502,-17.416 -5.642,-26.288 l 0.864,-0.713 c 0.699,-3.202 5.195,-7.043 7.616,-9.186 0.677,-0.598 2.545,-1.954 2.703,-2.862 0.235,-1.352 -0.977,-1.724 -0.193,-3.331 z"
       fill="#e9a33f"
       id="path61" />
    <path
       transform="scale(2.8677)"
       d="m 733.08,462.53 c 1.408,0.414 2.796,0.79 4.124,1.426 -5.584,2.351 -12.946,6.129 -16.911,10.745 l -0.5,-2.697 c 3.638,-5.053 7.674,-7.238 13.287,-9.474 z"
       fill="#f7cf01"
       id="path62" />
    <path
       transform="scale(2.8677)"
       d="m 711.46,519.74 c -3.936,-3.87 -6.418,-9.481 -8.058,-14.682 -2.078,-6.59 -1.271,-15.723 1.908,-21.846 3.974,-7.652 9.645,-19.017 18.532,-21.661 l 0.653,-0.185 c 2.574,-0.753 5.011,-0.933 7.669,-1.101 l 1.328,0.732 c -0.132,1.117 0.025,0.614 -0.415,1.526 -5.613,2.236 -9.649,4.421 -13.287,9.474 l 0.5,2.697 c -6.845,8.979 -10.924,20.602 -9.545,32.056 l 0.996,5.703 c 2.087,5.054 4.808,9.31 7.698,13.923 -2.693,-2.1 -5.571,-4.211 -7.979,-6.636 z"
       fill="#fde7a7"
       id="path63" />
    <path
       transform="scale(2.8677)"
       d="m 711.75,512.46 c -0.969,-1.267 -1.821,-3.127 -1.945,-4.699 l -0.223,-2.922 -0.323,-0.837 c 0.981,-0.991 0.499,-4.966 0.5,-6.5 0.806,-0.814 0.498,-1.884 0.5,-3 1.456,-2.192 -0.279,-4.745 -0.524,-7.084 -1.112,2.173 -1.15,5.794 -1.936,8.314 l -0.07,-0.588 c -0.512,-9.991 6.005,-16.274 12.07,-23.14 l 0.5,2.697 c -6.845,8.979 -10.924,20.602 -9.545,32.056 z"
       fill="#f9d77b"
       id="path64" />
    <path
       transform="scale(2.8677)"
       d="m 463.94,583.01 c 8.365,-3.846 16.548,-7.958 25.233,-11.044 11.633,-4.133 23.988,-6.452 35.823,-9.861 7.007,-2.019 13.725,-5.351 20.892,-6.649 0.031,3.7 -0.102,7.572 0.421,11.236 1.417,9.935 5.684,21.438 11.032,29.925 2.699,4.284 6.06,8.08 9.227,12.019 3.242,1.894 5.768,4.873 8.678,7.23 6.934,5.616 15.07,10.045 23.424,13.117 -0.129,0.817 -0.075,0.959 0.082,1.78 l 0.066,1.085 c 3.84,1.389 7.611,3.007 11.582,3.992 9.135,2.267 18.102,2.825 27.435,3.427 -3.317,3.623 -6.656,7.311 -10.624,10.244 -9.395,6.946 -20.3,12.292 -30.784,17.332 -11.157,5.362 -22.802,10.706 -34.47,14.873 l -14.372,4.389 c -13.398,4.372 -26.787,8.626 -40.586,11.59 -17.961,3.859 -36.454,5.939 -54.788,6.773 l -1.604,0.059 c 1.253,-2.58 3.092,-5.541 3.852,-8.281 0.68,-2.455 1.134,-11.189 0.285,-13.666 -0.128,-0.372 -0.441,-0.8 -0.621,-1.119 l -0.129,-0.278 c 0.27,-5.085 0.638,-10.117 0.215,-15.206 -1.46,-17.555 -8.41,-33.348 -18.552,-47.562 -2.447,-3.428 -5.395,-6.457 -7.911,-9.832 0.136,-0.91 -0.028,-0.852 -0.5,-1.587 l -0.005,-0.75 -2.495,-2.25 0.5,-0.255 c 0.748,-0.676 2.661,-2.944 3.071,-3.866 l 0.177,-0.504 1,-2 c 0.576,-1.105 0.451,-0.531 0.655,-1.556 l 0.092,-0.569 c 0.574,0.852 0.482,0.524 0.662,1.422 l 0.093,0.578 c 0.707,0.707 0.554,0.416 0.914,1.225 l 0.211,0.522 0.944,0.357 c 0.648,0.328 1.07,0.646 1.596,1.153 0.887,0.855 1.736,1.743 2.754,2.446 3.147,2.17 7.084,3.513 10.914,2.727 5.129,-1.054 10.543,-6.226 13.336,-10.525 2.697,-4.152 3.307,-7.314 2.275,-12.141 z"
       fill="#e9a33f"
       id="path65" />
    <path
       transform="scale(2.8677)"
       d="m 566.57,608.64 c 3.242,1.894 5.768,4.873 8.678,7.23 6.934,5.616 15.07,10.045 23.424,13.117 -0.129,0.817 -0.075,0.959 0.082,1.78 l 0.066,1.085 -2.572,-0.872 c -2.958,-1.215 -5.776,-2.995 -8.578,-4.525 -7.212,-3.937 -17.991,-9.869 -21.1,-17.815 z"
       fill="#e08e2e"
       id="path66" />
    <path
       transform="scale(2.8677)"
       d="m 523.86,634.58 c 2.352,-0.105 4.823,0.048 7.121,0.595 1.444,0.344 2.825,1.468 3.482,2.803 0.81,1.647 0.735,4.206 0.212,5.937 l -0.187,0.581 c -0.978,3.134 -1.546,4.43 -4.316,6.25 -1.913,0.45 -3.786,0.429 -5.667,-0.141 -1.98,-0.599 -3.573,-1.432 -4.515,-3.36 -1.185,-2.426 -1.699,-6.237 -0.642,-8.756 0.896,-2.136 2.5,-2.99 4.512,-3.909 z"
       fill="#e08e2e"
       id="path67" />
    <path
       transform="scale(2.8677)"
       d="m 545.89,555.46 c 0.717,-15.546 5.534,-30.524 14.853,-43.069 12.34,-16.612 29.769,-26.423 50.005,-29.55 11.46,-1.771 25.311,0.433 36.116,4.42 13.166,4.859 26.42,13.807 35.256,24.734 5.951,7.36 10.162,15.479 14.138,24.016 3.14,8.872 5.11,16.89 5.642,26.288 -0.581,6.805 -1.476,13.901 -3.478,20.451 -4.162,13.618 -13.319,25.367 -24.083,34.402 -16.337,13.713 -38.28,18.205 -59.058,16.075 l -3.319,-0.54 -0.921,-0.172 -12.369,-3.528 c -8.354,-3.072 -16.49,-7.501 -23.424,-13.117 -2.91,-2.357 -5.436,-5.336 -8.678,-7.23 -3.167,-3.939 -6.528,-7.735 -9.227,-12.019 -5.348,-8.487 -9.615,-19.99 -11.032,-29.925 -0.523,-3.664 -0.39,-7.536 -0.421,-11.236 z"
       fill="url(#i)"
       id="path68"
       style="fill:url(#i)" />
    <path
       transform="scale(2.8677)"
       d="m 606.83,498.7 c 4.785,-0.34 7.96,0.142 12.323,2.103 -13.832,3.971 -25.217,7.89 -36.407,17.263 l -8.553,7.855 c -1.943,1.413 -4.128,3.414 -6.447,4.072 -1.331,-1.474 -2.039,-2.82 -2.207,-4.838 -0.266,-3.193 2.076,-7.565 4.062,-9.967 8.775,-10.612 23.905,-15.498 37.229,-16.488 z"
       fill="#fffef9"
       id="path69" />
  </g>
</svg>
