<?xml version="1.0" encoding="UTF-8" standalone="no"?>
<!-- Created with Inkscape (http://www.inkscape.org/) -->

<svg
   width="200"
   height="200"
   viewBox="0 0 200 200"
   version="1.1"
   id="svg1"
   inkscape:version="1.3 (0e150ed6c4, 2023-07-21)"
   sodipodi:docname="100.svg"
   xmlns:inkscape="http://www.inkscape.org/namespaces/inkscape"
   xmlns:sodipodi="http://sodipodi.sourceforge.net/DTD/sodipodi-0.dtd"
   xmlns="http://www.w3.org/2000/svg"
   xmlns:svg="http://www.w3.org/2000/svg">
  <sodipodi:namedview
     id="namedview1"
     pagecolor="#ffffff"
     bordercolor="#000000"
     borderopacity="0.25"
     inkscape:showpageshadow="2"
     inkscape:pageopacity="0.0"
     inkscape:pagecheckerboard="0"
     inkscape:deskcolor="#d1d1d1"
     inkscape:document-units="px"
     inkscape:zoom="1.71875"
     inkscape:cx="-19.2"
     inkscape:cy="-56.145455"
     inkscape:window-width="1920"
     inkscape:window-height="991"
     inkscape:window-x="-9"
     inkscape:window-y="-9"
     inkscape:window-maximized="1"
     inkscape:current-layer="svg1" />
  <defs
     id="defs1" />
  <g
     id="g1"
     transform="matrix(3.2408083,0,0,3.2410708,427.78669,395.41064)">
    <path
       fill="#bcbec0"
       d="m -101.139,-118.883 c 15.315,0 27.74,12.414 27.74,27.74 0,15.32 -12.425,27.733 -27.74,27.733 -15.336,0 -27.739,-12.413 -27.739,-27.733 -0.001,-15.326 12.403,-27.74 27.739,-27.74"
       id="path55"
       style="fill:#0D9276;fill-opacity:1" />
    <path
       d="m -120.715,-89.592 c 0,8.865 8.713,16.011 19.503,16.011 10.801,0 19.513,-7.146 19.513,-16.011 z"
       id="path61" />
    <path
       d="m -91.457,-105.529 c -3.902,0 -6.497,2.605 -7.805,5.526 l 2.278,1.63 c 1.308,-2.278 2.932,-3.581 5.526,-3.581 2.594,0 4.557,1.63 5.527,3.581 l 2.268,-1.63 c -1.286,-2.921 -3.89,-5.526 -7.794,-5.526 z"
       id="path62" />
    <path
       d="m -110.959,-105.529 c -3.913,0 -6.508,2.605 -7.805,5.526 l 2.268,1.63 c 1.297,-2.278 2.932,-3.581 5.537,-3.581 2.595,0 4.546,1.63 5.517,3.581 l 2.278,-1.63 c -1.298,-2.921 -3.892,-5.526 -7.795,-5.526 z"
       id="path63" />
    <path
       d="m -101.139,-118.883 c 15.315,0 27.74,12.414 27.74,27.74 0,15.32 -12.425,27.733 -27.74,27.733 -15.336,0 -27.739,-12.413 -27.739,-27.733 -0.001,-15.326 12.403,-27.74 27.739,-27.74 m 0,-3.117 c -17.013,0 -30.861,13.85 -30.861,30.857 0,17.003 13.849,30.851 30.861,30.851 17.003,0 30.852,-13.848 30.852,-30.851 C -70.288,-108.15 -84.136,-122 -101.139,-122 Z"
       id="path64" />
  </g>
</svg>
