<?xml version="1.0" encoding="UTF-8" standalone="no"?>
<!-- Created with Inkscape (http://www.inkscape.org/) -->

<svg
   width="200"
   height="200"
   viewBox="0 0 200 200"
   version="1.1"
   id="svg1"
   inkscape:version="1.3 (0e150ed6c4, 2023-07-21)"
   sodipodi:docname="60.svg"
   xmlns:inkscape="http://www.inkscape.org/namespaces/inkscape"
   xmlns:sodipodi="http://sodipodi.sourceforge.net/DTD/sodipodi-0.dtd"
   xmlns="http://www.w3.org/2000/svg"
   xmlns:svg="http://www.w3.org/2000/svg">
  <sodipodi:namedview
     id="namedview1"
     pagecolor="#ffffff"
     bordercolor="#000000"
     borderopacity="0.25"
     inkscape:showpageshadow="2"
     inkscape:pageopacity="0.0"
     inkscape:pagecheckerboard="0"
     inkscape:deskcolor="#d1d1d1"
     inkscape:document-units="px"
     inkscape:zoom="1.2153398"
     inkscape:cx="160.86036"
     inkscape:cy="308.96709"
     inkscape:window-width="1920"
     inkscape:window-height="991"
     inkscape:window-x="-9"
     inkscape:window-y="-9"
     inkscape:window-maximized="1"
     inkscape:current-layer="svg1" />
  <defs
     id="defs1" />
  <g
     id="g1"
     transform="matrix(3.2410708,0,0,3.2410708,-884.81233,-515.33026)">
    <path
       fill="#bcbec0"
       d="m 303.852,162.117 c 15.325,0 27.751,12.414 27.751,27.74 0,15.32 -12.426,27.733 -27.751,27.733 -15.31,0 -27.739,-12.413 -27.739,-27.733 -10e-4,-15.326 12.429,-27.74 27.739,-27.74"
       id="path52"
       style="fill:#86A7FC;fill-opacity:1" />
    <rect
       x="290.19299"
       y="197.81999"
       width="27.308001"
       height="3.902"
       id="rect76" />
    <path
       d="m 312.3,174.928 c -2.541,0 -4.551,2.926 -4.551,6.502 0,3.576 2.01,6.502 4.551,6.502 2.537,0 4.547,-2.926 4.547,-6.502 0,-3.576 -2.01,-6.502 -4.547,-6.502 z"
       id="path77" />
    <path
       d="m 295.398,174.928 c -2.541,0 -4.562,2.926 -4.562,6.502 0,3.576 2.021,6.502 4.562,6.502 2.532,0 4.547,-2.926 4.547,-6.502 0,-3.576 -2.015,-6.502 -4.547,-6.502 z"
       id="path78" />
    <path
       d="m 303.852,162.117 c 15.325,0 27.751,12.414 27.751,27.74 0,15.32 -12.426,27.733 -27.751,27.733 -15.31,0 -27.739,-12.413 -27.739,-27.733 -10e-4,-15.326 12.429,-27.74 27.739,-27.74 m 0,-3.117 C 286.85,159 273,172.85 273,189.857 c 0,17.003 13.85,30.851 30.852,30.851 17.019,0 30.856,-13.848 30.856,-30.851 C 334.708,172.85 320.87,159 303.852,159 Z"
       id="path79" />
  </g>
</svg>
